<svg xmlns="http://www.w3.org/2000/svg" width="124.16" height="114.871" viewBox="0 0 124.16 114.871">
  <g id="Group_86" data-name="Group 86" transform="translate(-100 -1837.119)">
    <g id="Layer_1" data-name="Layer 1" transform="translate(100 1837.12)">
      <path id="Path_181" data-name="Path 181" d="M121.064,82.646c-22.556,32.409-64.857,41.963-94.481,21.346S-8.773,40.385,13.782,7.978,143.62,50.238,121.064,82.646Z" transform="translate(0 0)" fill="#9dd6c9"/>
    </g>
    <g id="vision" transform="translate(122 1854.119)">
      <path id="Path_485" data-name="Path 485" d="M76.132,26.977,71.443,25.8l-2.516-.629-2.516-.629L63.9,23.918V20.823a24.933,24.933,0,0,0,12.535-5.73l1.167-1a4,4,0,0,0,0-6.064l-1.166-1a25.06,25.06,0,0,0-32.618,0l-1.167,1a4,4,0,0,0,0,6.064l1.165,1a24.99,24.99,0,0,0,6.99,4.224L40.817,31.653a4.936,4.936,0,0,0-5.006.493l-4.678-3.9a8.8,8.8,0,1,0-13.777,1.546l-7.336,9.592a6.223,6.223,0,0,0-2.73-.649,6.362,6.362,0,1,0,4.725,2.182l7.337-9.6a8.753,8.753,0,0,0,10.17-1.146l4.681,3.9a4.977,4.977,0,0,0-.5,2.142,5.032,5.032,0,1,0,10.063,0,4.984,4.984,0,0,0-1-2.98L53.34,20.182a25.154,25.154,0,0,0,3.008.642v8.139a6.706,6.706,0,0,0-4.254-1.546,3.294,3.294,0,0,0-2.946,4.766l1.5,3.008A6.315,6.315,0,0,1,51.316,38v5.634a8.845,8.845,0,0,0,1.928,5.5l2.8,3.5-2.216,3.323V76.475H42.511V56.256a3.3,3.3,0,0,0,2.169-4.674l-3-5.994a3.295,3.295,0,0,0-5.892,0l-3,5.993a3.3,3.3,0,0,0,2.169,4.674V76.475H27.416V47.451a3.3,3.3,0,0,0,2.169-4.674l-3-5.993a3.294,3.294,0,0,0-5.892,0l-3,5.993a3.3,3.3,0,0,0,2.169,4.674V76.475H11.063V66.32a3.3,3.3,0,0,0,2.169-4.674l-3-5.994a3.295,3.295,0,0,0-5.892,0l-3,5.993A3.3,3.3,0,0,0,3.516,66.32V76.475H1V78.99H78.99V76.475H76.475V55.967l-2.216-3.325,2.8-3.5a8.842,8.842,0,0,0,1.928-5.5v-13a3.771,3.771,0,0,0-2.858-3.662ZM7.29,48.8a3.774,3.774,0,1,1,3.774-3.774A3.778,3.778,0,0,1,7.29,48.8ZM23.642,29.932a6.29,6.29,0,1,1,6.29-6.29A6.3,6.3,0,0,1,23.642,29.932Zm15.095,8.805a2.516,2.516,0,1,1,2.516-2.516A2.518,2.518,0,0,1,38.737,38.737ZM56.348,13.579v2.512a6.29,6.29,0,1,1,7.547,0V13.579a3.774,3.774,0,1,0-7.547,0ZM75.959,9.941a1.478,1.478,0,0,1,0,2.243l-1.167,1a22.408,22.408,0,0,1-9.174,4.741,8.777,8.777,0,0,0,.033-13.7A22.546,22.546,0,0,1,74.8,8.945ZM44.285,12.185a1.478,1.478,0,0,1,0-2.243l1.166-1A22.527,22.527,0,0,1,54.593,4.22a8.776,8.776,0,0,0,.031,13.7,22.408,22.408,0,0,1-9.175-4.742ZM35.741,53.832a.778.778,0,0,1-.777-.777.77.77,0,0,1,.082-.347l3-5.991a.8.8,0,0,1,1.39,0l3,5.993a.752.752,0,0,1,.083.347.778.778,0,0,1-.777.777H40V76.475H37.479V53.832ZM20.646,45.027a.778.778,0,0,1-.777-.777.77.77,0,0,1,.082-.347l3-5.991a.805.805,0,0,1,1.39,0l3,5.993a.743.743,0,0,1,.083.346.778.778,0,0,1-.777.777H24.9V76.475H22.384V45.027ZM4.293,63.9a.778.778,0,0,1-.777-.777.77.77,0,0,1,.082-.347l3-5.991a.8.8,0,0,1,1.39,0l3,5.993a.752.752,0,0,1,.083.347.778.778,0,0,1-.777.777H8.547V76.475H6.032V63.9ZM56.348,76.475V56.729l1.931-2.9H72.028l1.931,2.9V76.475ZM76.475,43.638A6.307,6.307,0,0,1,75.1,47.567l-3,3.75H58.211l-3-3.75a6.31,6.31,0,0,1-1.379-3.928V38a8.857,8.857,0,0,0-.93-3.939l-1.5-3.008a.768.768,0,0,1-.083-.348.778.778,0,0,1,.777-.777,4.26,4.26,0,0,1,4.254,4.254V40h2.516V13.579a1.258,1.258,0,0,1,2.516,0V40H63.9V26.512l2.516.629V40h2.516V27.77l2.516.629V40h2.516V29.028l1.562.391a1.256,1.256,0,0,1,.953,1.22Z"/>
      <path id="Path_486" data-name="Path 486" d="M19.774,16a3.774,3.774,0,1,0,3.774,3.774A3.778,3.778,0,0,0,19.774,16Zm0,5.032a1.258,1.258,0,1,1,1.258-1.258A1.259,1.259,0,0,1,19.774,21.032Z" transform="translate(3.869 3.869)"/>
    </g>
  </g>
</svg>
