<svg xmlns="http://www.w3.org/2000/svg" width="134.018" height="114.871" viewBox="0 0 134.018 114.871">
  <g id="Group_87" data-name="Group 87" transform="translate(-715 -1837)">
    <g id="Layer_1" data-name="Layer 1" transform="translate(714.995 1822.113)">
      <path id="Path_174" data-name="Path 174" d="M27.7,97.716S35.372,54.1,76.114,54.1s70.936,29.717,52.245,57.037,25.4,66.625-72.374,56.079-40.262-66.144-28.278-69.5Z" transform="translate(0 -39.213)" fill="#f3da95"/>
    </g>
    <path id="leadership" d="M21.715,63.435v-3.9l-6.923-3.884v11.5a1.054,1.054,0,1,1-2.108,0v-13.3a1.055,1.055,0,0,1,1.57-.919L23.285,58a1.054,1.054,0,0,1,.539.919v4.52a1.054,1.054,0,1,1-2.108,0ZM2.33,52.7V40.137c0-3.582,3.538-5.186,7.044-5.186h.876a7.779,7.779,0,0,1-2.314-5.713c0-3.6,2.161-5.833,5.64-5.833s5.641,2.235,5.641,5.833A7.778,7.778,0,0,1,16.9,34.951h8.271A2.69,2.69,0,0,0,26.1,34.8l3.938-1.33,2.659-.928,5.755-2.033a2.732,2.732,0,0,0,1.245-.861l1.846-2.2c2.084-2.479,3.729-4.437,6.8-4.437l2.762-.03a7.791,7.791,0,0,1-2.7-6.116c0-3.666,2.2-5.943,5.746-5.943S59.9,13.2,59.9,16.869a7.831,7.831,0,0,1-2.609,6.049H63.7l.016-6.23a3.541,3.541,0,0,1,2.64-3.426V1.054A1.054,1.054,0,0,1,67.408,0h9.529a1.054,1.054,0,0,1,.935,1.541L76.763,3.669,77.871,5.8a1.054,1.054,0,0,1-.935,1.541H68.462v5.949a3.576,3.576,0,0,1,2.513,3.4v9.777a3.631,3.631,0,0,1-3.624,3.628l-4.418.176a3.082,3.082,0,0,0-3.1,3.066v7.023l8.735,5.05a1.055,1.055,0,0,1,.526.913v8.813a1.054,1.054,0,0,1-2.108,0V46.93l-8.735-5.05a1.055,1.055,0,0,1-.526-.913V33.336a5.188,5.188,0,0,1,5.167-5.173l4.418-.176a1.531,1.531,0,0,0,1.558-1.521V16.688a1.523,1.523,0,0,0-3.045,0l-.014,6.438a2,2,0,0,1-1.977,2H48.352c-2.012,0-3.105,1.2-5.2,3.686L41.306,31A4.8,4.8,0,0,1,39.151,32.5l-3.86,1.364a3.456,3.456,0,0,1,.957,2.884l5.514-1.7a2.729,2.729,0,0,0,1.292-.826l2.924-3.252a1.054,1.054,0,0,1,1.838.7V59.219a1.054,1.054,0,1,1-2.108,0v-24.8l-1.086,1.208a4.787,4.787,0,0,1-2.238,1.431L34,39.643h0l-6.023,2.149a4.779,4.779,0,0,1-1.675.289H23.464A2.983,2.983,0,0,0,20.5,45.047V50.4l8.527,4.93a1.055,1.055,0,0,1,.526.913v7.192a1.054,1.054,0,0,1-2.108,0V56.852l-8.527-4.93a1.055,1.055,0,0,1-.526-.913V45.047a5.09,5.09,0,0,1,5.067-5.073H26.3a2.676,2.676,0,0,0,.967-.167l6.069-2.163a1.42,1.42,0,0,0,.733-.768,1.46,1.46,0,0,0-1.907-1.9c-.022.009-5.392,1.824-5.392,1.824a4.789,4.789,0,0,1-1.6.262H9.374c-.5,0-4.936.087-4.936,3.078V52.7a3.094,3.094,0,0,0,2.211,2.9V41.714a1.054,1.054,0,0,1,2.108,0v15.11s0,0,0,.007,0,0,0,.007V67.147a1.054,1.054,0,0,1-2.108,0V57.784A5.245,5.245,0,0,1,2.33,52.7ZM68.462,5.23H75.2L74.64,4.156a1.052,1.052,0,0,1,0-.974L75.2,2.108H68.462ZM50.513,16.869c0,2.824,1.632,5.121,3.638,5.121s3.639-2.3,3.639-5.121c0-3.337-2.279-3.835-3.639-3.835S50.513,13.532,50.513,16.869ZM10.044,29.238c0,2.748,1.584,4.983,3.532,4.983s3.533-2.235,3.533-4.983c0-3.241-2.214-3.725-3.533-3.725S10.044,26,10.044,29.238ZM62.173,56.189a1.054,1.054,0,0,0,1.054-1.054V49.054a1.054,1.054,0,0,0-.539-.919L53.45,42.952a1.054,1.054,0,0,0-1.569.919V59.218a1.054,1.054,0,1,0,2.108,0V45.671l7.131,4v5.463a1.054,1.054,0,0,0,1.054,1.054Zm14.763,3.976H57.966a1.054,1.054,0,0,0-1.054,1.054v3.173H39a1.054,1.054,0,0,0-1.054,1.054v2.472H20.024a1.054,1.054,0,0,0-1.054,1.054V71.9H1.054A1.054,1.054,0,0,0,0,72.954v3.983a1.054,1.054,0,0,0,2.108,0V74.007H18.971v2.929a1.054,1.054,0,1,0,2.108,0V70.025H37.941v6.912a1.054,1.054,0,0,0,2.108,0V66.5H56.912V76.937a1.054,1.054,0,1,0,2.108,0V62.272H75.883V76.937a1.054,1.054,0,1,0,2.108,0V61.218a1.055,1.055,0,0,0-1.054-1.054Z" transform="translate(743 1856)"/>
  </g>
</svg>
