<svg xmlns="http://www.w3.org/2000/svg" width="154.547" height="150.434" viewBox="0 0 154.547 150.434">
  <g id="Group_80" data-name="Group 80" transform="translate(-1139 -6908)">
    <g id="svg3654" transform="translate(1138.445 6907.999)">
      <path id="Path_287" data-name="Path 287" d="M153.365,134.459c-6.18,10.422-17.854,12.8-27.183,14.7-17.276,3.52-32.167-.861-48.612-5.7-8.947-2.632-14.1-4.149-19.9-7.106C31.479,122.99,22.228,95.505,8.8,55.615c-5.276-15.68-9.114-31.143-2.642-46C8.449,4.354,9.691,1.5,12.671.4,27.217-5,42.154,46.376,80.147,53.677c9.641,1.853,23.369,1.368,28.952,10.6,2.688,4.447,2.022,8.726,6.755,15,2.473,3.278,5.192,5.476,11.929,9.7,17.723,11.12,20.333,9.355,24.305,14.219,6.484,7.939,6.939,21.707,1.274,31.258Z" transform="translate(-2.203 0)" fill="#9ad9cc"/>
      <path id="Path_288" data-name="Path 288" d="M111.27,88.66l29.37,33.524S125.008,99.082,111.27,88.66Z" transform="translate(-88.879 -70.817)" fill="#fff"/>
      <path id="Path_289" data-name="Path 289" d="M74.93,347.49l19.407,27.539S84.008,356.053,74.93,347.49Z" transform="translate(-59.851 -277.562)" fill="#fff"/>
      <path id="Path_290" data-name="Path 290" d="M250.024,643.36l-19.8-7.53S242.53,643.362,250.024,643.36Z" transform="translate(-183.892 -507.877)" fill="#fff"/>
    </g>
    <g id="movies" transform="translate(1156 6902.886)">
      <path id="Path_511" data-name="Path 511" d="M224.982,99.379a3.191,3.191,0,0,0,1.6-.434l13.906-8.029a3.2,3.2,0,0,0,0-5.54l-13.906-8.029a3.2,3.2,0,0,0-4.8,2.77V96.175a3.212,3.212,0,0,0,3.2,3.2Zm.355-18.646,12.84,7.413-12.84,7.413Z" transform="translate(-169.132 -38.74)"/>
      <circle id="Ellipse_11" data-name="Ellipse 11" cx="2.279" cy="2.279" r="2.279" transform="translate(71.353 68.601)"/>
      <circle id="Ellipse_12" data-name="Ellipse 12" cx="2.279" cy="2.279" r="2.279" transform="matrix(0.987, -0.16, 0.16, 0.987, 80.423, 71.539)"/>
      <path id="Path_512" data-name="Path 512" d="M174.049,26.114H79.166a1.777,1.777,0,0,0,0,3.554h94.883a2.965,2.965,0,0,1,2.962,2.962V59.9a1.777,1.777,0,1,0,3.554,0V32.63a6.523,6.523,0,0,0-6.516-6.516Z" transform="translate(-59.017 0)"/>
      <path id="Path_513" data-name="Path 513" d="M119.771,67.427a1.777,1.777,0,0,0-1.777,1.777V88.559h-5.867l.63-5.222a4.621,4.621,0,0,0-.777-3.161,8.271,8.271,0,0,0-6.462-12.047q-.393-.041-.787-.045a8.276,8.276,0,0,0-7.375-9.126,8.274,8.274,0,0,0-16.216.516,8.478,8.478,0,0,0-.1.907q-.249-.015-.5-.015a8.253,8.253,0,0,0-5.554,2.141,8.274,8.274,0,0,0-13.814,5.651,8.332,8.332,0,0,0-2.821,1.2H36.706a6.813,6.813,0,0,0-13.154,0H18.511a1.777,1.777,0,0,0,0,3.554h5.041a6.813,6.813,0,0,0,13.154,0H55.358a8.246,8.246,0,0,0,.278,7.206,4.624,4.624,0,0,0-.815,3.221l.63,5.222H3.554V32.63a2.965,2.965,0,0,1,2.962-2.962h4.731a1.777,1.777,0,1,0,0-3.554H6.516A6.523,6.523,0,0,0,0,32.63v68.816a6.523,6.523,0,0,0,6.516,6.516H45.467v13.888H40.1a1.777,1.777,0,1,0,0,3.554H59.9l.7,5.793a4.624,4.624,0,0,0,4.587,4.067h37.211a4.624,4.624,0,0,0,4.587-4.067l2.8-23.235h5.247a6.523,6.523,0,0,0,6.516-6.516V69.2a1.777,1.777,0,0,0-1.777-1.777Zm-56.84,4.1a1.79,1.79,0,0,0,1.852-2.076,4.719,4.719,0,0,1,8.268-3.834,2.545,2.545,0,0,0,3.87,0,4.733,4.733,0,0,1,4.627-1.583A2.545,2.545,0,0,0,84.6,61.306a4.758,4.758,0,0,1,4.206-5.155,4.7,4.7,0,0,1,5.173,4.11A2.53,2.53,0,0,0,96.5,62.469h0a4.722,4.722,0,0,1,4.532,6.037,2.536,2.536,0,0,0,2.824,3.2,4.712,4.712,0,0,1,5.1,6.537,4.59,4.59,0,0,0-.795-.075H59.407a4.6,4.6,0,0,0-.744.067,4.631,4.631,0,0,1-.437-1.682,4.719,4.719,0,0,1,4.7-5.028Zm30.285,60.187.621-18.228c.338-.205.669-.42.986-.647a11.886,11.886,0,0,0,4.132-4.952l-1.6,23.827Zm-23,0-1.6-23.827a11.887,11.887,0,0,0,4.132,4.952c.318.228.648.442.986.647l.621,18.228Zm13.569-19.127c-6.817,0-12.364-3.75-12.364-8.36s5.546-8.36,12.364-8.36,12.364,3.75,12.364,8.36S90.606,112.582,83.789,112.582Zm1.777-20.2V81.718h5.8l-.4,11.853A20.056,20.056,0,0,0,85.566,92.383Zm-3.554,0a20.054,20.054,0,0,0-5.393,1.187l-.4-11.853h5.8V92.383ZM72.659,81.718l.465,13.639c-.124.083-.249.166-.369.252a11.394,11.394,0,0,0-4.544,6.128l-1.342-20.02Zm4.694,33.412a20.289,20.289,0,0,0,4.659.93v15.649H77.917Zm8.213.93a20.281,20.281,0,0,0,4.659-.93l-.565,16.579H85.566Zm13.8-14.322a11.393,11.393,0,0,0-4.544-6.129c-.121-.086-.245-.169-.369-.252l.464-13.639h5.79ZM30.129,74.393a3.26,3.26,0,1,1,3.26-3.26A3.264,3.264,0,0,1,30.129,74.393ZM3.554,101.446V92.114H55.88l1.484,12.294H6.516a2.965,2.965,0,0,1-2.962-2.962Zm45.467,20.4V107.961h8.771l1.676,13.888Zm15.1,8.921L58.349,82.912a1.067,1.067,0,0,1,1.059-1.194h3.9l3.351,49.991H65.183A1.067,1.067,0,0,1,64.125,130.771Zm39.328,0a1.067,1.067,0,0,1-1.059.938H100.92l3.351-49.991h3.9a1.067,1.067,0,0,1,1.059,1.194Zm11.58-26.364h-4.818L111.7,92.113h6.3v9.332A2.965,2.965,0,0,1,115.032,104.407Z" transform="translate(0 0)"/>
    </g>
  </g>
</svg>
