<svg xmlns="http://www.w3.org/2000/svg" width="104.193" height="114.871" viewBox="0 0 104.193 114.871">
  <g id="Group_88" data-name="Group 88" transform="translate(-1329 -1837)">
    <g id="Layer_1" data-name="Layer 1" transform="translate(1329.002 1825.276)">
      <path id="Path_209" data-name="Path 209" d="M100.753,122.907C98.138,138.52,95.865,151,86.107,155.861c-7.665,3.82-17.017,1.48-18,1.221-6.28-1.651-10.075-5.108-12.8-7.3-15.461-12.437-26.385-5.624-37.546-16.5-4.22-4.113-18.9-18.418-17.688-38.733C1.256,74.623,16.2,62.494,22.639,57.3c6.234-5.026,19.016-15.327,36.311-14.036,21.24,1.587,35.954,19.666,41.8,33.87,5.45,13.227,3.628,24.105,0,45.77Z" transform="translate(0 -31.432)" fill="#90d5c6"/>
    </g>
    <path id="values" d="M78.85,27.685,69.465,18.3a1.232,1.232,0,0,0-.871-.361H31.054a1.232,1.232,0,0,0-.871.361L20.8,27.685a1.232,1.232,0,0,0,0,1.747L49.093,57.45a1.232,1.232,0,0,0,1.738,0L78.85,29.428a1.232,1.232,0,0,0,0-1.743ZM57.5,29.788l-7.663,22.99-7.685-22.99ZM43.414,27.324l6.41-6.41,6.41,6.41ZM52.8,20.4h12.82l-6.41,6.41Zm-12.36,6.41L34.03,20.4H46.85Zm-.887,2.975L46.92,51.83,24.665,29.788Zm20.545,0H75l-22.36,22.36Zm2.087-2.465,6.41-6.41L75,27.324Zm-31.129-6.41,6.41,6.41H24.645Zm17.538-7.633V4.071a1.232,1.232,0,1,1,2.465,0v9.209a1.232,1.232,0,0,1-2.465,0Zm10.269.986L63.44,6.829a1.232,1.232,0,1,1,2.1,1.292L60.96,15.559a1.232,1.232,0,0,1-2.1-1.292ZM34.11,8.121a1.232,1.232,0,1,1,2.1-1.292l4.579,7.438a1.232,1.232,0,1,1-2.1,1.292ZM73.1,59.359a6.678,6.678,0,0,0-5.1-.678l-20.452,5.48a7.354,7.354,0,0,0-3.5-7.7L25.717,45.779a1.258,1.258,0,0,0-.148-.073,10.826,10.826,0,0,0-8.562-.008l-6.58,2.718v-1.11a2.445,2.445,0,0,0-2.442-2.442H2.942A2.445,2.445,0,0,0,.5,47.306V74.594a2.445,2.445,0,0,0,2.442,2.442H7.986a2.445,2.445,0,0,0,2.442-2.442V73.443a10.053,10.053,0,0,1,9.263.269l10.632,5.632a11.774,11.774,0,0,0,5.571,1.485,11.081,11.081,0,0,0,2.878-.389l32.71-8.764A6.72,6.72,0,0,0,73.1,59.359ZM2.965,74.572V47.328h5V74.572ZM70.845,69.3,38.135,78.06a8.819,8.819,0,0,1-6.658-.893L20.845,71.535a12.208,12.208,0,0,0-10.417-.726V51.083l7.521-3.107a8.324,8.324,0,0,1,6.6-.024L42.811,58.59a4.845,4.845,0,0,1-4.879,8.373l-9.794-5.706a1.232,1.232,0,0,0-1.241,2.13l9.794,5.706a7.24,7.24,0,0,0,3.656.992,7.4,7.4,0,0,0,1.887-.246,7.26,7.26,0,0,0,4.072-2.793l22.333-5.984A4.262,4.262,0,0,1,70.845,69.3Z" transform="translate(1341.5 1852.161)"/>
  </g>
</svg>
