<svg xmlns="http://www.w3.org/2000/svg" width="169.806" height="157.028" viewBox="0 0 169.806 157.028">
  <g id="Group_77" data-name="Group 77" transform="translate(-109 -2530)">
    <g id="Group_76" data-name="Group 76" transform="translate(-100.453 -24.566)">
      <path id="Path_287" data-name="Path 287" d="M153.365,134.459c-6.18,10.422-17.854,12.8-27.183,14.7-17.276,3.52-32.167-.861-48.612-5.7-8.947-2.632-14.1-4.149-19.9-7.106C31.479,122.99,22.228,95.505,8.8,55.615c-5.276-15.68-9.114-31.143-2.642-46C8.449,4.354,9.691,1.5,12.671.4,27.217-5,42.154,46.376,80.147,53.677c9.641,1.853,23.369,1.368,28.952,10.6,2.688,4.447,2.022,8.726,6.755,15,2.473,3.278,5.192,5.476,11.929,9.7,17.723,11.12,20.333,9.355,24.305,14.219,6.484,7.939,6.939,21.707,1.274,31.258Z" transform="translate(214.695 2558.564)" fill="#9ad9cc"/>
      <path id="Path_288" data-name="Path 288" d="M111.27,88.66l29.37,33.524S125.008,99.082,111.27,88.66Z" transform="translate(128.02 2487.747)" fill="#fff"/>
      <path id="Path_289" data-name="Path 289" d="M74.93,347.49l19.407,27.539S84.008,356.053,74.93,347.49Z" transform="translate(157.047 2281.003)" fill="#fff"/>
      <path id="Path_290" data-name="Path 290" d="M250.024,643.36l-19.8-7.53S242.53,643.362,250.024,643.36Z" transform="translate(33.007 2050.687)" fill="#fff"/>
    </g>
    <g id="cooperation" transform="translate(109 2511.267)">
      <path id="Path_487" data-name="Path 487" d="M169.058,171.125l-11.713-11.713a2.558,2.558,0,0,0-3.618,3.617l1.631,1.631-39.322,39.322L102.01,189.955l39.322-39.322,4.009,4.009a2.558,2.558,0,0,0,3.618-3.617l-5.8-5.8c-4.6-4.715-7.619-10.086-11.875-15.127C136.142,123.565,131,114,122.9,114.4a9.966,9.966,0,0,0-10.3-10.3,9.973,9.973,0,0,0-10.306-10.3c.442-9.384-11.287-13.6-17.39-6.827l-.6-.6A9.838,9.838,0,0,0,67.514,93.8a9.961,9.961,0,0,0-10.306,10.3,9.83,9.83,0,0,0-6.457,2.017A12.268,12.268,0,0,0,40.1,107.413a14.1,14.1,0,0,0-6.813,11.642l-2.9,22.427L.749,171.125a2.558,2.558,0,0,0,0,3.617l42.939,42.939a2.558,2.558,0,0,0,3.617,0l25.917-25.917a2.558,2.558,0,0,0,0-3.617l-4.354-4.354c4.888-4.888,9.791-7.364,16.034-10.184,6.195,2.8,11.189,5.34,16.034,10.184l-4.354,4.354a2.558,2.558,0,0,0,0,3.617L122.5,217.682a2.558,2.558,0,0,0,3.618,0l42.939-42.939a2.559,2.559,0,0,0,0-3.618Zm-45.69-51.619a4.809,4.809,0,0,1,4.323,6.641c-2.056-2.1-4.147-4.16-6.224-6.237l1.9-.4Zm-10.3-10.3a4.794,4.794,0,0,1,4.323,6.639,28.8,28.8,0,0,0-7.464-5.432,4.694,4.694,0,0,1,3.141-1.207ZM43.7,128.177l-.6-.6a4.726,4.726,0,0,1,6.684-6.684l.6.6-3.342,3.342ZM74,89.985a4.731,4.731,0,0,1,6.684,0l.6.6L74.6,97.272l-.6-.6a4.732,4.732,0,0,1,0-6.684ZM62.313,103.629a4.728,4.728,0,0,1,8.068-3.342l.6.6-3.342,3.342L64.3,107.573l-.6-.6a4.7,4.7,0,0,1-1.384-3.342Zm-5.576,5.578a4.711,4.711,0,0,1,3.342,1.382l.6.6L54,117.875l-.6-.6a4.724,4.724,0,0,1,3.342-8.066Zm-13.95,2.562A7.646,7.646,0,0,1,47.48,110.6a9.893,9.893,0,0,0-.569,3.81,9.96,9.96,0,0,0-8.463,4.078,9.183,9.183,0,0,1,4.339-6.715ZM45.5,212.255,6.176,172.934l4.655-4.655L50.152,207.6ZM96.3,173.142a32.855,32.855,0,0,0-5.706-2.82,57.855,57.855,0,0,0,6.909-6.306,2.558,2.558,0,0,0-3.618-3.617c-3.1,3.1-6.134,6.106-10.124,8.089-6.991,3.5-12.887,6.061-18.513,11.687L43.5,158.424a2.558,2.558,0,0,0-3.617,3.617L67.8,189.955,53.771,203.982,14.448,164.661l14.027-14.027,2.533,2.533a2.558,2.558,0,0,0,3.617-3.617l-2.533-2.533,2.534-2.534A2.56,2.56,0,0,0,35.355,143l1.951-15.1c.932,2.325,2.852,3.967,4.577,5.692a2.58,2.58,0,0,0,3.623.005L89.124,89.984c4.262-4.262,10.961,2.409,6.685,6.685a2.558,2.558,0,0,0,3.618,3.617c4.312-4.312,10.994,2.373,6.683,6.683a2.55,2.55,0,0,0-.749,1.809c0-.591-20.321-.315-21.965-.315-11.136,0-12.985,16.493-1.98,18.641L94.1,130.861a12.468,12.468,0,0,1,5.264,3.133l10.465,10.465-7.385,7.385a2.558,2.558,0,1,0,3.617,3.617l9.194-9.193a2.558,2.558,0,0,0,0-3.617l-12.274-12.274a17.6,17.6,0,0,0-7.43-4.421l-12.809-3.794c-4.719-1.4-5.162-8.582.653-8.582h18.175c4.937,0,9.16,2.83,12.534,6.2,0,0,11.095,11.14,11.845,11.98,4.373,4.863,7.17,10.658,11.764,15.252l-33.159,33.159a46.91,46.91,0,0,0-8.251-7.032Zm28.006,39.113-4.655-4.655,39.321-39.322,4.655,4.655Z" transform="translate(0 -42.67)"/>
      <path id="Path_488" data-name="Path 488" d="M243.986,29.079a2.558,2.558,0,0,0,2.558-2.558v-5.23a2.558,2.558,0,0,0-5.116,0v5.23A2.558,2.558,0,0,0,243.986,29.079Z" transform="translate(-159.083)"/>
      <path id="Path_489" data-name="Path 489" d="M202.17,35.659a2.558,2.558,0,1,0,4.687-2.05l-2.1-4.791a2.558,2.558,0,0,0-4.687,2.05Z" transform="translate(-131.692 -5.635)"/>
      <path id="Path_490" data-name="Path 490" d="M169.867,59.762A2.558,2.558,0,0,0,173.341,56l-3.84-3.551a2.558,2.558,0,0,0-3.473,3.757Z" transform="translate(-108.858 -21.772)"/>
      <path id="Path_491" data-name="Path 491" d="M278.382,36.978a2.556,2.556,0,0,0,3.369-1.319l2.1-4.791a2.558,2.558,0,0,0-4.688-2.05l-2.1,4.791A2.558,2.558,0,0,0,278.382,36.978Z" transform="translate(-182.422 -5.635)"/>
      <path id="Path_492" data-name="Path 492" d="M308.95,60.441a2.549,2.549,0,0,0,1.736-.68l3.84-3.551a2.558,2.558,0,0,0-3.474-3.757L307.213,56a2.558,2.558,0,0,0,1.737,4.436Z" transform="translate(-201.889 -21.772)"/>
      <circle id="Ellipse_10" data-name="Ellipse 10" cx="2.883" cy="2.883" r="2.883" transform="translate(50.322 145.408) rotate(-13.3)"/>
    </g>
  </g>
</svg>
