<svg xmlns="http://www.w3.org/2000/svg" width="38" height="38" viewBox="0 0 38 38">
  <g id="Group_13" data-name="Group 13" transform="translate(-1192 -5253)">
    <g id="Ellipse_9" data-name="Ellipse 9" transform="translate(1192 5253)" fill="none" stroke="#191919" stroke-width="1">
      <circle cx="19" cy="19" r="19" stroke="none"/>
      <circle cx="19" cy="19" r="18.5" fill="none"/>
    </g>
    <g id="Layer_1" data-name="Layer 1" transform="translate(1203 5264)">
      <path id="Path_171" data-name="Path 171" d="M108.91,97.394h3.274v1.487c.045-.023.067-.027.075-.04a3.579,3.579,0,0,1,3.171-1.715,4.722,4.722,0,0,1,2.182.407,3.176,3.176,0,0,1,1.674,2.091,8,8,0,0,1,.306,2.27c.015,2.125.009,4.25.011,6.376,0,.032,0,.065-.008.112h-3.427v-.226c0-1.8,0-3.6-.007-5.407a7.031,7.031,0,0,0-.109-1.222,1.588,1.588,0,0,0-2-1.389,1.753,1.753,0,0,0-1.638,1.708,8.3,8.3,0,0,0-.081,1.145c-.009,1.722,0,3.443,0,5.165v.255h-3.424V97.394Z" transform="translate(-103.041 -91.89)" fill="#191919"/>
      <path id="Path_172" data-name="Path 172" d="M5.41,102.2H8.817v11.012H5.41Z" transform="translate(-5.118 -96.692)" fill="#191919"/>
      <path id="Path_173" data-name="Path 173" d="M3.973,1.974A2,2,0,0,1,2,3.986a2.012,2.012,0,0,1-2-2,1.986,1.986,0,0,1,3.973-.012Z" transform="translate(0 0.002)" fill="#191919"/>
    </g>
  </g>
</svg>
