<svg xmlns="http://www.w3.org/2000/svg" width="172.008" height="172.054" viewBox="0 0 172.008 172.054">
  <g id="Group_79" data-name="Group 79" transform="translate(-1075 -3461)">
    <path id="Path_286" data-name="Path 286" d="M147.064,159.6c-8.245,6.554-23.649-.176-25.686-1.068-10.6-4.632-12.009-10.965-21.472-16.987-11.888-7.565-20.69-4.587-32.633-6.91C29.634,127.318,10.858,77.092,7.327,67.642,2.547,54.857-5.026,34.6,4.758,22.948a23.367,23.367,0,0,1,18.489-7.995c22.632,1.24,22.628,39.05,53.4,50.809,14.1,5.387,21.826.4,38.563,9.588,2.438,1.337,13.43,7.565,21.064,17.98a77.339,77.339,0,0,1,6.278,10.472,81.808,81.808,0,0,1,4,10.077c3.027,9.673,11.559,36.944.514,45.723Z" transform="translate(1085.001 3458.078)" fill="#9ad9cc"/>
    <g id="handshake" transform="translate(1074.931 3461)">
      <g id="Group_78" data-name="Group 78" transform="translate(0.069 0)">
        <path id="Path_504" data-name="Path 504" d="M4.369,237.046A2.52,2.52,0,1,0,.81,240.615l13.967,13.929a2.52,2.52,0,0,0,3.559-3.569Z" transform="translate(-0.069 -156.9)"/>
        <path id="Path_505" data-name="Path 505" d="M167.775,80.149,136.3,111.625,97.215,72.541a2.521,2.521,0,0,0-3.592.029L80.647,85.963a6.656,6.656,0,0,1-9.3.074,6.533,6.533,0,0,1,0-9.229L84.128,64.025l35.45-8.488a2.524,2.524,0,0,0,1.2-.669L136.15,39.491a2.52,2.52,0,0,0-3.564-3.564L117.713,50.8,86.231,58.338l-31.8-7.54L4.372.738A2.52,2.52,0,1,0,.807,4.3L49.591,53.085l-5.854,5.854A2.521,2.521,0,0,0,47.3,62.5l6.641-6.641,25.235,5.984-11.4,11.4a11.567,11.567,0,0,0,0,16.358,11.709,11.709,0,0,0,16.487-.131L95.462,77.915l39.056,39.056,3.9,3.9a6.358,6.358,0,1,1-8.992,8.992l-20.7-20.7a2.52,2.52,0,1,0-3.564,3.564l25.4,25.395a6.358,6.358,0,1,1-8.992,8.992L96.17,121.721a2.52,2.52,0,1,0-3.564,3.564l21.889,21.889a6.358,6.358,0,1,1-8.992,8.992L83.614,134.277a2.52,2.52,0,0,0-3.564,3.564l17.5,17.5a6.355,6.355,0,0,1-8.027,9.178,11.388,11.388,0,0,0-12.414-16.255c0-.051.006-.1.006-.154a11.388,11.388,0,0,0-9.294-11.2A11.4,11.4,0,0,0,51.8,120.887a11.4,11.4,0,0,0-15.177-8.579l-9.9-9.871a2.52,2.52,0,0,0-3.559,3.569l9.164,9.139-2.163,2.163A11.4,11.4,0,0,0,36.4,136.621a11.417,11.417,0,0,0,1.63,14.059h0a11.424,11.424,0,0,0,12.8,2.305,11.388,11.388,0,0,0,11.323,10.077,11.437,11.437,0,0,0,4.6-.966A11.395,11.395,0,0,0,86.1,168.73l.218-.211a11.4,11.4,0,0,0,17.05-7.575,11.4,11.4,0,0,0,17.958-7.955,11.4,11.4,0,0,0,14.43-16.371,11.394,11.394,0,0,0,6.231-19.308l-2.12-2.12,31.476-31.476a2.52,2.52,0,1,0-3.564-3.564ZM33.727,120.874,36.1,118.5a6.358,6.358,0,0,1,9,8.989l-2.379,2.379a6.358,6.358,0,0,1-8.992-8.992Zm7.863,26.242a6.366,6.366,0,0,1,0-8.992l12.839-12.839a6.358,6.358,0,1,1,8.992,8.992L50.582,147.117a6.365,6.365,0,0,1-8.992,0Zm16.062,9.048a6.354,6.354,0,0,1,0-8.986l3.571-3.571A6.357,6.357,0,0,1,71,151.632l-4.355,4.533a6.367,6.367,0,0,1-8.994,0Zm24.9,8.987A6.358,6.358,0,0,1,72.7,157.23l2.082-2.258.111-.105a6.383,6.383,0,0,1,8.923.068,6.357,6.357,0,0,1-.065,9.056l-1.169,1.132a.391.391,0,0,0-.03.029Z" transform="translate(-0.069 0)"/>
        <path id="Path_506" data-name="Path 506" d="M419.618,31.868a2.514,2.514,0,0,0,1.782-.738L448.228,4.3A2.52,2.52,0,0,0,444.664.739L417.836,27.566a2.52,2.52,0,0,0,1.782,4.3Z" transform="translate(-276.958 -0.001)"/>
        <path id="Path_507" data-name="Path 507" d="M440.35,172.952a2.52,2.52,0,0,0-3.564-3.564l-5.769,5.769a2.521,2.521,0,0,0,3.565,3.564Z" transform="translate(-285.709 -111.976)"/>
        <path id="Path_508" data-name="Path 508" d="M348.856,217.542h-3.916a2.52,2.52,0,1,0,0,5.041h3.916a22.412,22.412,0,0,0,15.952-6.607l4.142-4.142a2.52,2.52,0,0,0-3.564-3.564l-4.142,4.142A17.405,17.405,0,0,1,348.856,217.542Z" transform="translate(-227.374 -137.791)"/>
        <path id="Path_509" data-name="Path 509" d="M415.662,239.276a2.52,2.52,0,0,0,0,3.564l4.072,4.073a2.52,2.52,0,1,0,3.565-3.564l-4.072-4.073a2.52,2.52,0,0,0-3.564,0Z" transform="translate(-275.514 -158.378)"/>
        <path id="Path_510" data-name="Path 510" d="M185.367,27.554A2.52,2.52,0,0,0,188.941,24l-2.55-2.565a9.58,9.58,0,0,1,.326-13.859,9.65,9.65,0,0,1,12.832-.058,9.5,9.5,0,0,1,2.648,3.943,2.52,2.52,0,0,0,4.752,0A9.5,9.5,0,0,1,209.6,7.518a9.65,9.65,0,0,1,12.832.058,9.58,9.58,0,0,1,.321,13.864L204.574,39.722l-7.306-7.35a2.52,2.52,0,1,0-3.575,3.553l9.094,9.149a2.52,2.52,0,0,0,3.575,0L226.32,25a14.621,14.621,0,0,0-.492-21.146A14.611,14.611,0,0,0,204.574,5.52a14.611,14.611,0,0,0-21.254-1.666,14.62,14.62,0,0,0-.5,21.14Z" transform="translate(-118.569 -0.054)"/>
      </g>
    </g>
  </g>
</svg>
