<svg xmlns="http://www.w3.org/2000/svg" width="158.484" height="172.054" viewBox="0 0 158.484 172.054">
  <g id="Group_74" data-name="Group 74" transform="translate(-100 -4342)">
    <path id="Path_280" data-name="Path 280" d="M73.2,41.938c27.524-10,26.5-29.861,55.513-38.5,6.317-1.879,22.47-6.691,27.938,0,6.135,7.511-3.6,26.552-22.858,64.221-5.127,10.025-6.546,12.129-8.708,18.142-7.765,21.589-2.2,30.082-7.191,44.991C110.25,153.6,86.165,164.126,81.55,166.041c-5.784,2.4-30.521,12.666-53.7-.78C5.435,152.254,1.622,127.015.638,120.506.13,117.146-3.273,91.965,12.975,70.2A67.724,67.724,0,0,1,30.684,54c16.774-10.653,25.26-5.784,42.52-12.057Z" transform="translate(100 4342.002)" fill="#f2d68a"/>
    <g id="excellence" transform="translate(47.15 4333.877)">
      <path id="Path_497" data-name="Path 497" d="M203.33,212.649H182.388a22.861,22.861,0,0,1-18.567-9.554l-1.677-2.349a17.7,17.7,0,0,1-3.316-10.348,14.4,14.4,0,1,0-28.8,0,41.645,41.645,0,0,0,4.374,18.528l1.862,3.723h-29.8A10.47,10.47,0,0,0,103.011,233a10.459,10.459,0,0,0,3.3,14.8,10.462,10.462,0,0,0,6.839,17.139,10.464,10.464,0,0,0,9.024,15.774h32.565a78.4,78.4,0,0,0,19-2.339l1.117-.279h4.913a2.618,2.618,0,0,0,2.618,2.618H203.33a2.618,2.618,0,0,0,2.618-2.618V215.267a2.618,2.618,0,0,0-2.618-2.618ZM101.236,223.121a5.242,5.242,0,0,1,5.236-5.236h15.707a5.236,5.236,0,1,1,0,10.471H106.471A5.242,5.242,0,0,1,101.236,223.121Zm26.178,20.942H111.707a5.236,5.236,0,1,1,0-10.471h15.707a5.236,5.236,0,1,1,0,10.471Zm-18.325,10.471a5.242,5.242,0,0,1,5.236-5.236h15.707a5.236,5.236,0,1,1,0,10.471H114.325A5.242,5.242,0,0,1,109.089,254.534Zm13.089,20.942a5.236,5.236,0,1,1,0-10.471h15.707a5.236,5.236,0,1,1,0,10.471Zm51.722-2.54-1.43.358a73.165,73.165,0,0,1-17.726,2.182h-7.8a10.461,10.461,0,0,0-7.892-15.64,10.456,10.456,0,0,0-3.632-14.275,10.46,10.46,0,0,0-4.549-16.616,10.441,10.441,0,0,0,.366-11.061H140.5a2.618,2.618,0,0,0,2.341-3.789l-3.756-7.512a36.383,36.383,0,0,1-3.821-16.187,9.162,9.162,0,0,1,18.325,0,22.909,22.909,0,0,0,4.292,13.391l1.677,2.349a28.118,28.118,0,0,0,20.209,11.624v55.1s-5.663.026-5.87.078Zm26.813,2.54H185.006V217.885h15.707Z" transform="translate(-15.575 -107.561)"/>
      <path id="Path_498" data-name="Path 498" d="M80.562,75.858a2.618,2.618,0,0,0,3.808,2.747l11.059-5.86,11.1,5.788a2.618,2.618,0,0,0,3.789-2.772l-2.156-12.329,4.214-4.135-1,5.938a2.618,2.618,0,0,0,3.808,2.747l13.989-7.413L143.21,67.89A2.618,2.618,0,0,0,147,65.118l-.9-5.146,3.526,3.459-2.156,12.329a2.618,2.618,0,0,0,3.789,2.772l11.1-5.788,11.059,5.86a2.618,2.618,0,0,0,3.807-2.747l-2.076-12.343,8.991-8.707a2.618,2.618,0,0,0-1.436-4.47l-12.38-1.84-5.5-11.242a2.618,2.618,0,0,0-2.343-1.467h-.009a2.618,2.618,0,0,0-2.344,1.452l-5.576,11.206L144.337,49.9l-.065-.374,11.3-11.088a2.618,2.618,0,0,0-1.466-4.46l-15.675-2.225-7.053-14.175a2.618,2.618,0,0,0-2.344-1.451h-.009a2.618,2.618,0,0,0-2.343,1.467l-6.96,14.22-15.66,2.328a2.618,2.618,0,0,0-1.436,4.47L114,49.622l-.058.345-10.707-1.52L97.66,37.241a2.618,2.618,0,0,0-2.344-1.451h-.009a2.618,2.618,0,0,0-2.343,1.467L87.463,48.5l-12.38,1.84a2.618,2.618,0,0,0-1.436,4.47l8.991,8.707L80.562,75.859Zm76.084-22.421a2.618,2.618,0,0,0,1.976-1.426l3.826-7.689,3.776,7.714a2.618,2.618,0,0,0,1.967,1.438l8.494,1.263-6.169,5.975a2.618,2.618,0,0,0-.761,2.315l1.424,8.469-7.589-4.021a2.617,2.617,0,0,0-2.436-.008l-7.615,3.971,1.48-8.46a2.618,2.618,0,0,0-.746-2.319l-6.13-6.015,8.5-1.207Zm-46.566-14.9,11.774-1.75a2.618,2.618,0,0,0,1.967-1.439l5.233-10.692,5.3,10.658a2.618,2.618,0,0,0,1.976,1.426l11.786,1.673-8.5,8.337a2.618,2.618,0,0,0-.746,2.319L140.928,60.8l-10.555-5.5a2.618,2.618,0,0,0-2.436.008l-10.519,5.574,1.974-11.74a2.618,2.618,0,0,0-.761-2.315l-8.551-8.281ZM81.1,54.737l8.495-1.263a2.618,2.618,0,0,0,1.967-1.439l3.776-7.713,3.826,7.689a2.618,2.618,0,0,0,1.976,1.426l8.5,1.207-6.13,6.015a2.618,2.618,0,0,0-.746,2.319l1.48,8.46L96.63,67.467a2.615,2.615,0,0,0-2.436.008L86.6,71.5l1.424-8.469a2.618,2.618,0,0,0-.761-2.315L81.1,54.737Z"/>
      <path id="Path_499" data-name="Path 499" d="M267.948,339.159h-.017a23.137,23.137,0,0,1-20.317-11.835l-.607-1.086a2.618,2.618,0,0,0-4.57,2.554l.607,1.087A28.345,28.345,0,0,0,267.785,344.4h.178a2.618,2.618,0,0,0-.016-5.236Z" transform="translate(-113.869 -207.734)"/>
    </g>
  </g>
</svg>
