<svg id="instagram" xmlns="http://www.w3.org/2000/svg" width="60.221" height="60.221" viewBox="0 0 60.221 60.221">
  <path id="Path_501" data-name="Path 501" d="M218.527,212.763A5.763,5.763,0,1,1,212.763,207,5.763,5.763,0,0,1,218.527,212.763Zm0,0" transform="translate(-182.653 -182.653)" fill="#303084"/>
  <path id="Path_502" data-name="Path 502" d="M163.138,139.466a5.726,5.726,0,0,0-3.281-3.281,9.566,9.566,0,0,0-3.21-.595c-1.824-.083-2.37-.1-6.987-.1s-5.164.017-6.987.1a9.572,9.572,0,0,0-3.21.6,5.728,5.728,0,0,0-3.282,3.281,9.57,9.57,0,0,0-.595,3.211c-.083,1.823-.1,2.37-.1,6.987s.018,5.163.1,6.987a9.566,9.566,0,0,0,.595,3.21,5.726,5.726,0,0,0,3.281,3.281,9.555,9.555,0,0,0,3.211.6c1.823.083,2.369.1,6.986.1s5.164-.017,6.987-.1a9.555,9.555,0,0,0,3.211-.6,5.726,5.726,0,0,0,3.281-3.281,9.575,9.575,0,0,0,.6-3.21c.083-1.824.1-2.37.1-6.987s-.017-5.164-.1-6.987A9.555,9.555,0,0,0,163.138,139.466Zm-13.478,19.075a8.878,8.878,0,1,1,8.878-8.878A8.878,8.878,0,0,1,149.659,158.541Zm9.229-16.033a2.075,2.075,0,1,1,2.075-2.075A2.075,2.075,0,0,1,158.889,142.508Zm0,0" transform="translate(-119.549 -119.552)" fill="#303084"/>
  <path id="Path_503" data-name="Path 503" d="M30.11,0a30.11,30.11,0,1,0,30.11,30.11A30.114,30.114,0,0,0,30.11,0ZM47.3,37.239a12.685,12.685,0,0,1-.8,4.2,8.841,8.841,0,0,1-5.057,5.057,12.694,12.694,0,0,1-4.2.8c-1.844.084-2.433.1-7.128.1s-5.285-.02-7.129-.1a12.694,12.694,0,0,1-4.2-.8,8.841,8.841,0,0,1-5.057-5.057,12.682,12.682,0,0,1-.8-4.2c-.085-1.844-.1-2.433-.1-7.129s.02-5.285.1-7.128a12.687,12.687,0,0,1,.8-4.2,8.847,8.847,0,0,1,5.057-5.057,12.7,12.7,0,0,1,4.2-.8c1.844-.084,2.433-.1,7.128-.1s5.285.02,7.128.1a12.7,12.7,0,0,1,4.2.8,8.843,8.843,0,0,1,5.057,5.057,12.684,12.684,0,0,1,.8,4.2c.084,1.844.1,2.433.1,7.128S47.381,35.395,47.3,37.239Zm0,0" fill="#303084"/>
</svg>
