<svg xmlns="http://www.w3.org/2000/svg" width="155.217" height="114" viewBox="0 0 155.217 114">
  <g id="Layer_1" data-name="Layer 1" transform="translate(0 0.022)">
    <path id="Path_192" data-name="Path 192" d="M154.391,88.331c-3.491,14.011-15.291,10.456-38.571,36.335-8.167,9.078-13.542,17.105-25.435,21.522A37.731,37.731,0,0,1,72.5,148.7c-11.742-1.395-15.135-8.226-28.23-15.652-18.729-10.621-25.454-4.394-34.1-12.857C-1.023,109.238-3.916,84.938,6.255,74.356c13.2-13.729,36.07,8.452,73.788-1.118,31.335-7.952,40.486-29.591,56.459-23.758C149.538,54.24,157.971,73.959,154.391,88.331Z" transform="translate(0 -34.956)" fill="#f2d68a"/>
    <path id="Path_193" data-name="Path 193" d="M187.256,57.637c-.157.176-.282.444-.478.511-.562.19-1.23.531-1.7.369s-.847-.819-1.121-1.336a2.685,2.685,0,0,1-.042-1.138V7.838c0-3.086-1.395-4.492-4.452-4.492H87.941c-3.058,0-4.452,1.409-4.452,4.492v53.13c0,3.007,1.417,4.427,4.413,4.427h46.333c.28,0,.559-.006.836,0,1.224.025,1.976.674,1.965,1.691s-.763,1.655-2,1.657c-2.641.011-5.283,0-7.98,0v6.627h9.905c.081-1.431.075-2.893.257-4.332A24.649,24.649,0,0,1,151.13,51.195a1.53,1.53,0,0,0,1-1.655c-.056-1.884-.025-3.77-.036-5.657a1.246,1.246,0,0,0-.117-.293c-.47,0-.984.022-1.493-.006a1.633,1.633,0,0,1-1.7-1.73q-.034-6.654,0-13.31a1.63,1.63,0,0,1,1.719-1.716c.486-.025.973-.006,1.616-.006V23.58c0-1.118-.02-2.236.008-3.354a1.667,1.667,0,1,1,3.326-.022c.031,1.78.011,3.564.011,5.344v1.269h1.174c1.624.014,2.169.565,2.172,2.225q0,6.129,0,12.262c0,1.73-.531,2.27-2.222,2.281h-1.07v5.931a24.274,24.274,0,0,1,9.919-.651V40.23c-.4,0-.8.006-1.2,0-1.49-.02-2.068-.6-2.068-2.119q-.008-7.806,0-15.616c0-.662-.006-1.328,0-1.99.017-1.5.593-2.06,2.11-2.077.375,0,.752,0,1.235,0,0-1.579-.006-3.069,0-4.561.006-1.35.584-2.107,1.621-2.138,1.073-.034,1.716.76,1.725,2.144.006,1.465,0,2.929,0,4.559.545,0,1.051-.017,1.554,0a1.652,1.652,0,0,1,1.783,1.764q.029,9.119,0,18.235a1.656,1.656,0,0,1-1.755,1.792c-.484.022-.967,0-1.515,0v9.327a25.113,25.113,0,0,1,8.223,4.044,24.5,24.5,0,0,1,9.928,17.27,6.871,6.871,0,0,0,.193.8v4.4c-.084.436-.184.872-.252,1.311a25.075,25.075,0,0,1-46.562,8.947,1.44,1.44,0,0,0-1.465-.839q-9.987.038-19.976.011a5.056,5.056,0,0,1-5.386-5.037c0-2.9,2.27-5.014,5.4-5.023,1.52-.006,3.044,0,4.564,0V68.739H88.064c-5.034,0-7.924-2.884-7.924-7.91V7.914c0-5.039,2.879-7.929,7.9-7.929H176.2c1.325,0,2.65-.017,3.974.006A7.1,7.1,0,0,1,186.926,5c.1.291.221.567.333.852V57.631ZM149.772,81.853a57,57,0,0,1,.006-16.231c-1.386.386-2.611.749-3.849,1.068a1.659,1.659,0,1,1-.973-3.17,10.02,10.02,0,0,1,2.4-.69c2.426-.2,3.578-1.442,3.9-3.854a30.671,30.671,0,0,1,1.395-4.7A21.613,21.613,0,0,0,140.9,78.3a1.54,1.54,0,0,0,.861.886c1.912.746,3.846,1.434,5.786,2.1.674.232,1.384.355,2.225.565Zm25.1-16.312-.246.321a60.7,60.7,0,0,1-.008,16.06c1.406-.405,2.6-.766,3.807-1.093a1.673,1.673,0,1,1,1,3.192,10.615,10.615,0,0,1-2.7.785c-2.317.154-3.32,1.339-3.625,3.6a31.537,31.537,0,0,1-1.4,4.768c.1.022.134.045.157.034a21.835,21.835,0,0,0,11.594-24.079.939.939,0,0,0-.467-.612c-2.7-1.012-5.406-1.99-8.111-2.977Zm-14.456-1.456c-2.244.249-4.419.467-6.579.763-.246.034-.576.484-.626.78a50.46,50.46,0,0,0-.008,16.247c.05.3.355.78.59.811,2.186.3,4.383.528,6.621.78V64.085Zm3.446,19.392c2.275-.252,4.447-.47,6.61-.766.243-.034.57-.489.618-.785a50.779,50.779,0,0,0,.008-16.247c-.048-.288-.3-.749-.5-.777-2.219-.307-4.447-.548-6.733-.811V83.477Zm-25.5-1.305c-.215-.906-.444-1.641-.556-2.393-.115-.774-.475-.989-1.247-.981-3.759.042-7.519.02-11.278.02-2.158,0-4.316-.02-6.473.008a1.677,1.677,0,0,0-1.778,2.116,1.76,1.76,0,0,0,1.94,1.238c4.838-.014,9.676-.006,14.514-.006h4.877Zm27.2-60.33V36.8h3.223V21.841Zm-1.7,73.763c.838-.148,1.61-.321,2.393-.416a1.5,1.5,0,0,0,1.4-1.154c.375-1.157.9-2.264,1.28-3.418.472-1.431.866-2.89,1.319-4.416l-6.387.57V95.6Zm-9.64-9.279c-.017.182-.061.293-.031.38.886,2.638,1.769,5.277,2.68,7.907a.808.808,0,0,0,.484.478c1,.2,2.015.352,3.052.523V86.783l-6.185-.456Zm6.2-34.261c-.766.106-1.473.257-2.188.291a1.7,1.7,0,0,0-1.691,1.372c-.718,2.253-1.5,4.486-2.242,6.733a5.459,5.459,0,0,0-.14.872c2.147-.2,4.181-.389,6.264-.584V52.064Zm3.452.07v8.639l6.448.545c-.7-2.144-1.305-4.131-2-6.088-1.043-2.935-1.2-3.016-4.45-3.1Zm17.852,12.181A22.078,22.078,0,0,0,171.7,54.2c.718,2.574,1.386,5.011,2.093,7.438a.923.923,0,0,0,.556.514c2.387.721,4.785,1.411,7.379,2.169ZM142.614,83.323A21.905,21.905,0,0,0,152.6,93.338c-.718-2.569-1.378-4.978-2.079-7.373a1.034,1.034,0,0,0-.623-.57C147.533,84.7,145.163,84.041,142.614,83.323ZM155.4,30.24h-3.22v9.945h3.22Z" transform="translate(-57.741)"/>
    <path id="Path_194" data-name="Path 194" d="M191.835,21.424H101.5V73.361h46.291c1.411.008,2.188.6,2.188,1.677s-.78,1.674-2.191,1.674H100.3c-1.638,0-2.191-.559-2.191-2.205V20.217c0-1.643.553-2.2,2.2-2.2h92.677c1.641,0,2.2.556,2.2,2.2V64.448a3.763,3.763,0,0,1-.025.732,1.66,1.66,0,0,1-3.293,0,6.865,6.865,0,0,1-.028-1.152v-42.6Z" transform="translate(-70.688 -12.999)"/>
    <path id="Path_195" data-name="Path 195" d="M188.617,57.132c.478,0,.852,0,1.227,0,1.551.017,2.116.584,2.119,2.172q.008,8.435,0,16.868v5.447c0,1.839-.5,2.331-2.37,2.345h-.939c-.162,1.364.411,3.368-1.814,3.287-1.993-.073-1.47-1.9-1.61-3.231-.33-.02-.632-.05-.936-.053-1.906-.017-2.373-.495-2.373-2.446v-21.9c0-2.024.439-2.474,2.426-2.493h.922V55.925q0-5.865,0-11.733c0-1.384.646-2.177,1.719-2.144,1.034.031,1.621.794,1.624,2.135q.008,5.865,0,11.733v1.216Zm-.073,23.431V60.57h-3.22V80.563Z" transform="translate(-131.073 -30.31)"/>
    <path id="Path_196" data-name="Path 196" d="M137.3,73.272a2.481,2.481,0,0,0-.436-.064c-2.437.193-2.982-.514-2.935-3.061.081-4.293.022-8.589.022-12.882,0-2.063.425-2.485,2.516-2.507h.836c0-1.7-.025-3.334.008-4.964a1.663,1.663,0,1,1,3.323-.031c.036.732.008,1.467.011,2.2v2.8c.576,0,1.054-.017,1.532,0a1.648,1.648,0,0,1,1.8,1.738q.034,7.488,0,14.978a1.636,1.636,0,0,1-1.722,1.716c-.484.025-.973.006-1.613.006v1.146c0,2.829.006,5.657,0,8.486,0,1.325-.62,2.093-1.657,2.1s-1.68-.763-1.683-2.074c-.008-3.172,0-6.345,0-9.584Zm3.273-3.471V58.193h-3.22V69.8Z" transform="translate(-96.497 -34.641)"/>
    <path id="Path_197" data-name="Path 197" d="M284.425,73.391a2.768,2.768,0,0,0,.442.061c2.44-.2,2.971.567,2.929,2.963-.075,4.293-.022,8.589-.022,12.882,0,2.172-.4,2.583-2.524,2.608h-.825c0,1.082.014,2.085,0,3.086-.02,1.207-.7,1.968-1.719,1.934-.973-.031-1.6-.763-1.621-1.929-.017-.975,0-1.951,0-3.094-.436,0-.836,0-1.235,0-1.515-.017-2.107-.584-2.11-2.074q-.013-7.173,0-14.35c0-1.425.609-2,2.054-2.021.38-.006.76,0,1.288,0V72.3q0-5.081,0-10.16c0-1.325.62-2.088,1.663-2.093s1.674.763,1.677,2.082c.006,3.731,0,7.46,0,11.258Zm-3.281,3.443V88.475h3.2V76.834Z" transform="translate(-200.103 -43.281)"/>
    <path id="Path_198" data-name="Path 198" d="M233.133,122.432c0-2.2-.006-4.257,0-6.311.006-1.311.643-2.082,1.685-2.071s1.652.774,1.655,2.1c.008,2.052,0,4.106,0,6.278.593,0,1.1-.022,1.613.006a1.634,1.634,0,0,1,1.719,1.713q.042,4.972,0,9.95a1.655,1.655,0,0,1-1.8,1.741c-.478.02-.956,0-1.42,0-.394,2.817-.724,3.4-1.859,3.346s-1.47-.7-1.663-3.348c-.528,0-1.07.028-1.61-.006a1.616,1.616,0,0,1-1.66-1.666q-.046-5.027,0-10.054a1.609,1.609,0,0,1,1.646-1.674c.514-.034,1.034-.006,1.685-.006Zm.02,9.97h3.256v-6.54h-3.256Z" transform="translate(-165.547 -82.188)"/>
  </g>
</svg>
