<svg xmlns="http://www.w3.org/2000/svg" width="116.684" height="114.5" viewBox="0 0 116.684 114.5">
  <g id="Layer_1" data-name="Layer 1" transform="translate(0.002 0.498)">
    <path id="Path_202" data-name="Path 202" d="M104.315,85.656c-.135,20.661-14.02,39.3-31.43,47.426a49.245,49.245,0,0,1-20.7,4.7c-19.16-.092-31.931-12.16-35.433-15.572C12.775,118.33-1.078,104.831.065,85.656c.985-16.543,12.526-27.111,21.3-35.147,8.212-7.521,17.28-15.826,30.825-16.978,21.061-1.791,40.118,14.8,47.786,31.951a49.337,49.337,0,0,1,4.339,20.174Z" transform="translate(0 -23.779)" fill="#f2d68a"/>
    <path id="Path_203" data-name="Path 203" d="M120.766,8.712c0-1.5-.009-2.865,0-4.227.026-2.845,1.644-4.466,4.506-4.472q7.978-.022,15.953,0a4.093,4.093,0,0,1,4.434,4.434c.014,1.362,0,2.727,0,4.21.443.02.824.052,1.2.052q7.87,0,15.737,0c3.162,0,4.921,1.768,4.927,4.964.012,6.626.02,13.252-.017,19.874-.006.855.256,1.169,1.088,1.336a16.838,16.838,0,0,1,3.173,1c4.815,2.039,6.793,6.082,5.437,11.115a1.223,1.223,0,0,0,.478,1.512,3.357,3.357,0,0,1-.9,5.673,1.807,1.807,0,0,0-1.143,1.255c-1.181,3.349-2.96,6.26-6.24,7.93-5.462,2.779-11.705.737-14.818-4.9a2.239,2.239,0,0,0-2.315-1.351c-16.059.043-32.118-.023-48.177.069-3.415.02-5.252-2.168-5.235-5.249.078-12.673.032-25.348.035-38.021,0-3.539,1.679-5.212,5.223-5.212h16.649Zm7.193,23.151c0-.9.014-1.716,0-2.534-.02-.852.354-1.258,1.224-1.253q4.043.022,8.083,0c.875-.006,1.232.423,1.215,1.264-.017.818,0,1.638,0,2.517h27.232V13.9c0-2.511-.864-3.395-3.346-3.395H104.053c-2.442,0-3.326.884-3.329,3.3q0,8.479,0,16.958c0,.348.035.7.055,1.1h27.183ZM100.721,33.79V52.052c0,2.459.858,3.323,3.288,3.323h48.984c.058-.121.115-.239.17-.36a7.6,7.6,0,0,0-1.12-.87c-2-1.037-2.661-3.781-1.022-5.27a3.3,3.3,0,0,0,1.14-2.871,10.168,10.168,0,0,1,.141-1.613c.6-4.288,2.3-7.9,6.666-9.373,1.817-.616,3.87-.541,5.817-.775.3-.037.6-.049.9-.072-.006-.1-.014-.21-.02-.314H138.472c0,1.137-.023,2.249.006,3.358.026.956-.377,1.368-1.348,1.356-2.514-.032-5.031-.009-7.544-.012-1.474,0-1.621-.147-1.627-1.6,0-1.063,0-2.125,0-3.176H100.721Zm68.91,11.76c-1.687.835-3.228,1.685-4.838,2.37a19.932,19.932,0,0,1-10.9,1.759c-1.126-.17-1.664.081-1.892.988a1.541,1.541,0,0,0,1.313,1.975c.7.155.942.559,1.212,1.175a26.565,26.565,0,0,0,2.6,5.272,8.987,8.987,0,0,0,14.4.19,27.222,27.222,0,0,0,2.747-5.431c.268-.579.394-1.137,1.183-1.169a1.516,1.516,0,0,0,1.607-1.543c.046-.968-.513-1.48-1.451-1.7a9.042,9.042,0,0,1-5.975-3.887Zm5.517,1.909c1.682-4.466.219-8.184-4.017-9.857a26.694,26.694,0,0,0-6.243-1.52c-5.785-.777-9.825,2.139-10.663,7.9-.654,4.478-1.106,4.3,3.833,3.9,4.052-.325,7.645-2.1,11.037-4.276.967-.619,1.336-.5,1.831.518a6.7,6.7,0,0,0,4.221,3.332Zm-49.116-38.8c0-.694-.032-1.333.006-1.97a2.667,2.667,0,0,1,2.767-2.7q4.414-.052,8.829,0a2.669,2.669,0,0,1,2.764,2.71c.037.636.006,1.276.006,1.967h3.467c0-1.624.063-3.2-.02-4.768a2.193,2.193,0,0,0-2.234-2.073q-8.4-.048-16.8,0a2.2,2.2,0,0,0-2.235,2.076c-.078,1.569-.02,3.144-.02,4.768h3.467Zm3.787,21.274v6.778H136.6V29.929Zm-1.9-21.271h10.617c.017-.4.046-.752.049-1.1.009-1.682-.086-1.78-1.742-1.782H130.4c-2.721,0-2.767.052-2.482,2.882Z" transform="translate(-70.387)" stroke="#000" stroke-width="1"/>
    <path id="Path_204" data-name="Path 204" d="M120.154,248.05a7.448,7.448,0,0,1-1.615-1c-1.325-1.4-2.638-.723-3.954-.081a1.155,1.155,0,0,0-.443.665c-.161.513-.256,1.045-.38,1.569a2.232,2.232,0,0,1-2.407,1.88c-1.149,0-2.3-.029-3.447.009-.815.026-1.3-.265-1.417-1.109a5.645,5.645,0,0,1-.193-.947c.078-1.909-1.339-2.4-2.727-2.88a1.235,1.235,0,0,0-.87.187c-.714.412-1.405.867-2.088,1.33a1.06,1.06,0,0,1-1.535-.13c-1.106-1.132-2.269-2.209-3.309-3.4-.262-.3-.21-.944-.167-1.42a1.5,1.5,0,0,1,.492-.818c1.336-1.279,1.042-2.655.245-4.037a1.455,1.455,0,0,0-.783-.59,21.582,21.582,0,0,0-2.309-.515,1.181,1.181,0,0,1-1.088-1.345c.017-1.474.02-2.952,0-4.426a1.194,1.194,0,0,1,1.169-1.382,5.584,5.584,0,0,1,.838-.178c1.941.086,2.474-1.333,2.931-2.782a1.391,1.391,0,0,0-.259-.956c-2.047-3.358-2.157-2.3.636-5.221.5-.518,1.028-1,1.512-1.538a1.108,1.108,0,0,1,1.7-.167,5.734,5.734,0,0,1,.72.469c1.284,1.342,2.655.988,4.028.2a1.286,1.286,0,0,0,.51-.717c.23-.792.415-1.6.573-2.41a1.06,1.06,0,0,1,1.169-1c1.581.014,3.165-.055,4.737.046.392.026.824.515,1.1.893a2.2,2.2,0,0,1,.294,1.135,2.63,2.63,0,0,0,2.154,2.638c.639.193,1.1.328,1.659-.112.5-.4,1.106-.674,1.621-1.06a1.269,1.269,0,0,1,1.961.184c.97,1.06,2,2.073,3.023,3.075a1.18,1.18,0,0,1,.193,1.719c-.184.265-.323.567-.53.812a2.671,2.671,0,0,0-.4,3.392,2.048,2.048,0,0,0,1.538,1.2c3.358.734,2.851.23,2.888,3.533.009.9-.02,1.8.009,2.7a1.126,1.126,0,0,1-1.014,1.29,4.665,4.665,0,0,1-.838.187,2.811,2.811,0,0,0-2.995,2.543,1.738,1.738,0,0,0,.1,1.071c.377.731.933,1.376,1.267,2.125a1.557,1.557,0,0,1-.02,1.339c-1.117,1.264-2.341,2.433-3.542,3.62a3.451,3.451,0,0,1-.723.406Zm-11.987-30.909c-.458,1.886-.317,4.118-2.995,4.342-2.085,1.814-3.513-.112-5.287-1.037-.59.648-1.152,1.353-1.808,1.958-.567.527-.749.973-.181,1.61,1.2,1.35,1.676,2.79.429,4.4a1.258,1.258,0,0,0-.227.6c-.164,1.241-.956,1.682-2.1,1.895-2.021.38-2.013.432-2.013,2.471,0,1.719-.009,1.78,1.725,2.068a3.1,3.1,0,0,1,2.517,2.033c1,2,.965,3.591-.487,5.238a.928.928,0,0,0,.009.893c.668.832,1.417,1.6,2.122,2.378a15.243,15.243,0,0,0,1.474-.933c1.129-.927,2.252-1.319,3.565-.3a3.387,3.387,0,0,0,1.394.541,1.568,1.568,0,0,1,1.322,1.474c.15.835.366,1.661.547,2.468h3.706c.622-1.768.236-4.172,3.026-4.331,2.091-1.805,3.507.124,4.956.873.953-.919,1.846-1.777,2.761-2.655a6.249,6.249,0,0,0-.5-.795c-1.135-1.353-1.6-2.753-.389-4.319a1.273,1.273,0,0,0,.23-.6c.164-1.232.921-1.693,2.088-1.9,2.1-.38,2.1-.441,2.082-2.517-.014-2.059.265-1.661-1.65-2.007-1.431-.259-2.373-.752-2.638-2.292-.1-.579-.573-1.088-.726-1.667a2.136,2.136,0,0,1,.058-1.376,26.14,26.14,0,0,1,1.477-2.419c-.91-.936-1.754-1.805-2.623-2.7-1.621.826-3.047,2.761-5.131.953-2.753-.2-2.459-2.594-3.012-4.339h-3.723Z" transform="translate(-65.623 -153.306)" stroke="#000" stroke-width="1"/>
    <path id="Path_205" data-name="Path 205" d="M271.77,247.922H251.2c-1.368,0-1.541-.167-1.541-1.561-.006-3.527-.032-7.052.006-10.579a8.384,8.384,0,0,1,8.762-8.748c1.615-.014,3.231.02,4.846-.012a1.53,1.53,0,0,1,1.63,1.06c1.336,2.923,3.824,4.089,6.885,4.075s5.532-1.158,6.873-4.095c.279-.613.582-1.042,1.319-1.034,2.082.032,4.175-.084,6.243.089a8.19,8.19,0,0,1,7.66,8.037c.124,3.847.029,7.7.043,11.55,0,1.031-.576,1.232-1.466,1.232q-10.34-.026-20.681-.012Zm20.243-1.831c0-3.98.141-7.829-.046-11.668a6.251,6.251,0,0,0-5.857-5.526c-1.719-.084-3.447-.063-5.169-.009a1.4,1.4,0,0,0-.95.622c-3.582,5.981-12.889,5.987-16.445.012a1.481,1.481,0,0,0-1.042-.631c-1.506-.069-3.015-.049-4.524-.023a6.5,6.5,0,0,0-6.519,6.617c-.026,2.338-.006,4.679-.006,7.017v3.579h6.75c0-1.457-.017-2.851.006-4.244.014-.884.564-1.466,1.109-1.146a1.679,1.679,0,0,1,.68,1.175c.084,1.385.032,2.779.032,4.184h23.514c0-1.532-.058-2.969.04-4.4.023-.363.538-.691.826-1.034a4.943,4.943,0,0,1,.878,1.019,2.668,2.668,0,0,1,.032,1.065v3.389h6.689Z" transform="translate(-177.758 -161.647)" stroke="#000" stroke-width="1"/>
    <path id="Path_206" data-name="Path 206" d="M199.524,22.922c-.285-2.831-.239-2.882,2.482-2.882h6.444c1.653,0,1.748.1,1.742,1.782,0,.351-.029.7-.049,1.1H199.527Z" transform="translate(-141.99 -14.268)" fill="#fff"/>
    <path id="Path_207" data-name="Path 207" d="M119.911,151.77h7.68a2.709,2.709,0,0,1,1.063.035c.392.179.924.5.988.841.118.639-.406.919-1.034.916h-1.4c-2.546,0-5.091.006-7.637,0-1.241,0-1.422-.187-1.425-1.451-.006-2.551,0-5.1-.006-7.654,0-.685.014-1.417.916-1.388s.861.78.861,1.448c-.009,2.367,0,4.734,0,7.254Z" transform="translate(-84.123 -101.869)" stroke="#000" stroke-width="1"/>
    <path id="Path_208" data-name="Path 208" d="M125.56,256.837a8.286,8.286,0,1,1,8.23,8.368,8.269,8.269,0,0,1-8.23-8.368Zm14.749.058a6.486,6.486,0,1,0-6.49,6.525A6.5,6.5,0,0,0,140.309,256.895Z" transform="translate(-89.406 -176.992)" stroke="#000" stroke-width="1"/>
  </g>
</svg>
