<svg xmlns="http://www.w3.org/2000/svg" width="138.569" height="150.434" viewBox="0 0 138.569 150.434">
  <g id="Layer_1" data-name="Layer 1" transform="translate(0 0.002)">
    <path id="Path_280" data-name="Path 280" d="M64.006,36.668C88.072,27.922,87.177,10.559,112.544,3c5.523-1.643,19.647-5.85,24.427,0,5.365,6.567-3.15,23.216-19.986,56.151-4.483,8.765-5.723,10.605-7.614,15.862-6.789,18.876-1.919,26.3-6.288,39.338C96.4,134.3,75.338,143.5,71.3,145.177c-5.057,2.1-26.686,11.075-46.951-.682C4.752,133.122,1.418,111.054.558,105.363c-.444-2.938-3.42-24.954,10.786-43.985A59.214,59.214,0,0,1,26.829,47.21C41.495,37.9,48.915,42.153,64.006,36.668Z" transform="translate(0 0)" fill="#f2d68a"/>
    <g id="Group_31" data-name="Group 31" transform="translate(9.348 14.109)">
      <path id="Path_281" data-name="Path 281" d="M151.064,65.656a26.477,26.477,0,0,1-2.126,2.639q-8.018,7.776-16.109,15.478c-1.735,1.659-3.794,1.811-5.108.238a4.69,4.69,0,0,1-.917-2.351,28.639,28.639,0,0,1-.041-3.8c.01-.555-.1-.9-.771-.895-4.035.022-8.074.016-12.109.029-.1,0-.194.079-.419.178,8.616,7.493,13.248,16.871,13.238,28.247-.01,11.344-4.629,20.694-13.47,28.39h22.556c2.135,0,3.134.666,3.112,2.065-.022,1.383-1.009,2.008-3.169,2.008-9.181,0-18.362-.013-27.546.022a5.926,5.926,0,0,0-2.373.536,36.157,36.157,0,0,1-31.109-.022,5.753,5.753,0,0,0-2.259-.514c-6.608-.038-13.219-.019-19.827-.025-2.275,0-2.89-.622-2.9-2.893v-4.28L33.834,146.041l15.754,15.116a8.837,8.837,0,0,0,.127-.987c.013-1.228-.016-2.459.013-3.686a2.075,2.075,0,0,1,2.341-2.348c.238-.006.476,0,.714,0H135.89c2.027,0,3.023.673,3.011,2.027s-1.018,2.027-3.036,2.027H53.776c0,1.247-.076,2.43.016,3.6a4.077,4.077,0,0,1-2.471,4.511H49.658a23.282,23.282,0,0,1-2.354-1.745q-8.094-7.7-16.135-15.453c-2.278-2.186-2.265-3.921.022-6.132Q39.434,135,47.669,127.019c1.183-1.152,2.487-1.713,4.077-1.025a3.4,3.4,0,0,1,2.034,3.566c-.032,1.342-.006,2.684-.006,4.137h13.4c-8.664-7.493-13.324-16.852-13.346-28.218-.022-11.4,4.594-20.789,13.394-28.425-.584-.035-.977-.079-1.37-.079q-10.626,0-21.252,0c-1.992,0-3.007-.72-2.966-2.091.041-1.329,1.006-1.983,2.957-1.983,9.222,0,18.441.016,27.663-.025a6.582,6.582,0,0,0,2.6-.577,36.1,36.1,0,0,1,30.89.022,6.356,6.356,0,0,0,2.487.555c6.529.044,13.061.022,19.59.025,2.421,0,2.988.584,2.988,3.042v4.134c5.422-5.2,10.624-10.19,15.891-15.237-5.26-5.082-10.437-10.085-15.757-15.228a10.032,10.032,0,0,0-.127,1.006c-.013,1.228.019,2.459-.013,3.686a2.075,2.075,0,0,1-2.348,2.341c-.238.006-.476,0-.714,0H44.63c-2.03,0-3.02-.669-3-2.027s1.022-2.027,3.039-2.027h82.083c0-1.288.079-2.509-.016-3.718A4.013,4.013,0,0,1,129.2,44.48h1.662a19.7,19.7,0,0,1,2.271,1.653q7.88,7.542,15.694,15.155a31.044,31.044,0,0,1,2.221,2.7v1.666Zm-60.8,72.223a32.485,32.485,0,1,0-32.409-32.552A32.469,32.469,0,0,0,90.262,137.879Z" transform="translate(-29.469 -44.48)"/>
      <path id="Path_282" data-name="Path 282" d="M356.052,360.583a2.5,2.5,0,0,1-2.471,1.472c-7.16-.035-14.323-.013-21.483-.022a2.04,2.04,0,1,1-.171-4.042c1.818-.035,3.639-.01,5.46-.01,5.263,0,10.526.029,15.786-.022a2.905,2.905,0,0,1,2.877,1.431v1.19Z" transform="translate(-234.457 -258.511)"/>
      <path id="Path_283" data-name="Path 283" d="M42.776,102.136c3.556,0,7.109-.006,10.666,0,1.513,0,2.427.761,2.446,1.983.019,1.25-.945,2.065-2.5,2.068q-10.664.01-21.328,0c-.159,0-.317.006-.473-.006a2.064,2.064,0,0,1-2.027-2.059,1.971,1.971,0,0,1,2.081-1.973c3.712-.029,7.427-.01,11.138-.01v-.006Z" transform="translate(-29.531 -83.844)"/>
      <path id="Path_284" data-name="Path 284" d="M236.8,196.924c1.415-2.842,2.719-5.46,4.023-8.077.336-.673.663-1.348,1.006-2.018.736-1.437,1.811-1.907,2.96-1.307,1.1.574,1.364,1.713.688,3.084-1.031,2.094-2.084,4.175-3.131,6.262-.958,1.91-1.884,3.835-2.887,5.723a1.823,1.823,0,0,0,.016,1.878c1.929,3.813,3.82,7.645,5.723,11.471.124.247.254.492.365.745a2.025,2.025,0,0,1-.841,2.849,1.98,1.98,0,0,1-2.77-1.053c-1.526-3-3.007-6.015-4.508-9.025-.19-.381-.4-.752-.692-1.282-.273.489-.485.838-.666,1.2q-2.122,4.249-4.235,8.5c-.866,1.735-1.894,2.275-3.112,1.643-1.2-.619-1.358-1.764-.489-3.509,1.922-3.861,3.832-7.728,5.793-11.57a1.814,1.814,0,0,0,0-1.865c-2.021-3.988-3.991-8-5.986-12a2.2,2.2,0,0,1,.092-2.56c.961-1.19,2.693-.891,3.474.641,1.51,2.96,2.969,5.945,4.454,8.918.19.381.4.749.72,1.348Z" transform="translate(-164.807 -140.604)"/>
      <path id="Path_285" data-name="Path 285" d="M161.42,189.389v10.06c.444.025.857.067,1.272.067q5.163.01,10.326,0c1.114,0,2.065.276,2.414,1.478.412,1.421-.558,2.566-2.23,2.586-3.087.032-6.173.01-9.257.013h-2.563v1.317c0,3.369.006,6.738-.006,10.107a4.5,4.5,0,0,1-.168,1.4,1.98,1.98,0,0,1-3.832-.358,7.782,7.782,0,0,1-.041-1.186V188.234c0-2.382.53-2.9,2.944-2.9,4.311,0,8.626-.013,12.937.006,1.659.006,2.639,1.155,2.217,2.576a2.088,2.088,0,0,1-2.3,1.475c-3.442-.006-6.884,0-10.326,0h-1.386Z" transform="translate(-116.768 -140.645)"/>
    </g>
  </g>
</svg>
