<svg xmlns="http://www.w3.org/2000/svg" width="105.981" height="114" viewBox="0 0 105.981 114">
  <g id="Layer_1" data-name="Layer 1" transform="translate(0.002)">
    <path id="Path_209" data-name="Path 209" d="M89.705,114.162c-2.328,13.9-4.352,25.01-13.04,29.341-6.824,3.4-15.151,1.318-16.029,1.087-5.591-1.47-8.971-4.548-11.4-6.5-13.766-11.073-23.492-5.007-33.43-14.692C12.053,119.737-1.018,107,.061,88.913c1.057-17.74,14.363-28.539,20.1-33.161,5.55-4.474,16.931-13.646,32.329-12.5C71.4,44.668,84.5,60.765,89.705,73.411c4.852,11.777,3.23,21.462,0,40.751Z" transform="translate(0 -31.432)" fill="#90d5c6"/>
    <g id="Group_17" data-name="Group 17" transform="translate(5.182)">
      <path id="Path_210" data-name="Path 210" d="M167.517,28.449c-.269-2.671-.225-2.719,2.342-2.719h6.08c1.559,0,1.649.1,1.644,1.682,0,.331-.027.66-.046,1.038H167.52Z" transform="translate(-127.111 -18.74)" fill="#fff"/>
      <path id="Path_211" data-name="Path 211" d="M103.614,84.067H110.5V77.052c-.293-.1-.611-.2-.921-.31a7.582,7.582,0,0,1-3.608-11.421,1.8,1.8,0,0,0,.318-1.565,5.941,5.941,0,0,1,2.673-6.325,5.853,5.853,0,0,1,6.7.087,6.135,6.135,0,0,1,2.543,6.409,1.886,1.886,0,0,0,.272,1.274,7.563,7.563,0,0,1-3.855,11.6.942.942,0,0,0-.761,1.076c.033,2.027.014,4.053.014,6.194h4.358V87.27H19.08V84.132h6.227V0C37.918,5.132,50.369,10.2,62.939,15.312V.024c2.051.834,3.985,1.619,5.917,2.41q16.863,6.9,33.734,13.785a1.4,1.4,0,0,1,1.046,1.535q-.041,32.446-.022,64.889v1.424Zm-3.241-6.352c.022-.353.052-.652.052-.948q0-28.526.019-57.049a1.145,1.145,0,0,0-.858-1.252Q83.362,11.88,67.158,5.257c-.274-.111-.56-.193-.9-.307V77.715Zm-56.087-6.45c.019-.367.046-.633.046-.9q0-29.125.016-58.25a1.151,1.151,0,0,0-.864-1.258c-4.621-1.834-9.226-3.708-13.836-5.567-.3-.122-.617-.22-.973-.345V71.266H44.283ZM47.53,18.224h4.749v3.255H47.565v8.552h4.714v3.26H47.56v8.577H52.27v3.271H47.546v8.647h4.738v3.236H47.543v8.618h4.752V68.9H47.554v2.331H62.9V62.341H57.823V59.073H62.9v-9.4h-5.11V46.426h5.1V38.314h-5.1v-3.23H62.9V26.969H57.8V23.72H62.95c0-1.445-.038-2.763.016-4.078.024-.625-.228-.869-.769-1.087-4.613-1.856-9.215-3.744-13.823-5.616-.258-.106-.538-.166-.848-.258v5.545Zm52.775,62.9H66.167v2.912h34.139Zm10.3-15.738c-3.029,2.9-3.5,5.254-1.521,7.341a4.349,4.349,0,0,0,6.124.2,4.259,4.259,0,0,0,1.4-3.059c.071-2.019-1.163-3.3-2.7-4.415.312-.527.609-.975.853-1.448a2.822,2.822,0,1,0-4.95.046c.236.443.516.864.8,1.339ZM57.557,84.037H62.9V74.618H57.557Zm-28.922.014h5.227V74.643H28.635Zm25.671.005V74.6H50.844v9.457Zm-13.578,0V74.6h-3.45v9.454Zm3.35-.035h3.344V74.6H44.077v9.419Z" transform="translate(-19.08)"/>
      <path id="Path_212" data-name="Path 212" d="M281.834,132.492H276.18V129.33h5.654Z" transform="translate(-206.332 -94.194)"/>
      <path id="Path_213" data-name="Path 213" d="M276.25,211.67h5.67v3.124h-5.67Z" transform="translate(-206.383 -154.165)"/>
      <path id="Path_214" data-name="Path 214" d="M276.22,101.88h5.643v3.132H276.22Z" transform="translate(-206.362 -74.202)"/>
      <path id="Path_215" data-name="Path 215" d="M276.05,160.041V156.96h5.708v3.081Z" transform="translate(-206.238 -114.318)"/>
      <path id="Path_216" data-name="Path 216" d="M281.869,242.388H276.21V239.28h5.659Z" transform="translate(-206.354 -174.274)"/>
      <path id="Path_217" data-name="Path 217" d="M276.2,184.16h5.656v3.146H276.2Z" transform="translate(-206.347 -134.128)"/>
      <path id="Path_218" data-name="Path 218" d="M215.36,214.816V211.67H221v3.146Z" transform="translate(-162.036 -154.165)"/>
      <path id="Path_219" data-name="Path 219" d="M221.043,239.23v3.119H215.4V239.23Z" transform="translate(-162.065 -174.237)"/>
      <path id="Path_220" data-name="Path 220" d="M221.092,105.033h-5.6V101.89h5.6Z" transform="translate(-162.13 -74.209)"/>
      <path id="Path_221" data-name="Path 221" d="M221.065,156.96v3.1H215.43v-3.1Z" transform="translate(-162.087 -114.318)"/>
      <path id="Path_222" data-name="Path 222" d="M215.34,132.471V129.33h5.64v3.141Z" transform="translate(-162.021 -94.194)"/>
      <path id="Path_223" data-name="Path 223" d="M215.39,184.12h5.618v3.154H215.39V184.12Z" transform="translate(-162.058 -134.099)"/>
      <path id="Path_224" data-name="Path 224" d="M73.328,211.74v3.108H67.65V211.74Z" transform="translate(-54.455 -154.216)"/>
      <path id="Path_225" data-name="Path 225" d="M67.608,104.831q-.3-3.181,2.714-3.181h2.956v3.181H67.61Z" transform="translate(-54.404 -74.034)"/>
      <path id="Path_226" data-name="Path 226" d="M73.131,239.28v3.16c-1.76,0-3.472.019-5.181-.027-.19-.005-.511-.391-.53-.619-.065-.8-.024-1.614-.024-2.51h5.735Z" transform="translate(-54.261 -174.274)"/>
      <path id="Path_227" data-name="Path 227" d="M73.361,187.311H67.71V184.16h5.651Z" transform="translate(-54.498 -134.128)"/>
      <path id="Path_228" data-name="Path 228" d="M73.139,156.963v3.162c-1.763,0-3.475.019-5.184-.03-.187-.005-.505-.394-.524-.625-.065-.8-.024-1.614-.024-2.51h5.732Z" transform="translate(-54.268 -114.318)"/>
      <path id="Path_229" data-name="Path 229" d="M73.3,129.37v3.122H67.61V129.37Z" transform="translate(-54.426 -94.223)"/>
    </g>
  </g>
</svg>
