<svg xmlns="http://www.w3.org/2000/svg" width="124.16" height="114.871" viewBox="0 0 124.16 114.871">
  <g id="Layer_1" data-name="Layer 1" transform="translate(-0.001 0.001)">
    <path id="Path_181" data-name="Path 181" d="M121.064,82.646c-22.556,32.409-64.857,41.963-94.481,21.346S-8.773,40.385,13.782,7.978,143.62,50.238,121.064,82.646Z" transform="translate(0 0)" fill="#9dd6c9"/>
    <path id="Path_182" data-name="Path 182" d="M90.212,83.888a4.5,4.5,0,0,1,3.339-3.211,6.029,6.029,0,0,1,1.214-.1c2.622-.009,5.243-.028,7.863.012a2.108,2.108,0,0,0,1.673-.68q17-17.009,34.028-33.986c.247-.245.452-.531.708-.837l8.3,8.331,14.222-14.194-5.688-5.64L177.2,30.04c-1.188,7.129-2.356,14.127-3.538,21.2-1.937-1.955-3.8-3.838-5.779-5.831-.753.785-1.373,1.389-1.934,2.044a1.3,1.3,0,0,0-.224.79q-.014,20.054-.007,40.111c0,.168.016.336.03.587,1.321,0,2.6,0,3.868,0a4.2,4.2,0,0,1,4.488,4.467c.007,1.326,0,2.654,0,4.129a3.825,3.825,0,0,1,2.631,3.006,19.608,19.608,0,0,1,0,4.675,3.8,3.8,0,0,1-2.64,3.025c0,1.6.033,3.076-.007,4.547a4.129,4.129,0,0,1-4.106,4.046q-11.27.038-22.542,0a4.147,4.147,0,0,1-4.1-4.146c-.012-.433,0-.867,0-1.424h-1.053c-15.581,0-31.162-.033-46.743.03-2.615.012-4.451-.811-5.339-3.346V83.881Zm44.743,12.027a12.584,12.584,0,1,0-12.621,12.568A12.593,12.593,0,0,0,134.956,95.915Zm-21.53-12.551h-18.6c-1.354,0-1.813.471-1.813,1.85q0,10.721,0,21.44c0,1.363.466,1.827,1.836,1.827q8.907,0,17.813,0c.212,0,.424-.033.722-.058a15.49,15.49,0,0,1,.042-25.059Zm25.907-34.114q-15.8,15.765-31.386,31.325c.972,0,2.074-.037,3.174.014a1.845,1.845,0,0,0,1.519-.629Q125.5,67.081,138.4,54.234c.24-.24.494-.471.813-.774,2.8,2.8,5.551,5.546,8.357,8.347,6.744-6.732,13.467-13.444,20.347-20.314,1.3,1.363,2.531,2.657,3.866,4.055.687-4.12,1.345-8.075,2.018-12.12l-12.181,2.034,3.875,3.8L147.4,57.315c-2.689-2.687-5.439-5.437-8.072-8.07Zm6.919,50.665a4.351,4.351,0,0,1-2.911-4.754c.035-.58,0-1.163,0-1.743a4.2,4.2,0,0,1,4.488-4.467c1.272,0,2.547,0,3.785,0,.058-.137.1-.189.1-.238q.014-1.7.016-3.4c0-1.529-.426-1.944-1.985-1.944H132.273c-.273,0-.548.023-.974.042,4.19,3.251,6.432,7.362,6.434,12.521s-2.279,9.277-6.467,12.554c4.106,0,7.979,0,11.852-.007.182,0,.478-.054.529-.168a4.546,4.546,0,0,1,2.6-2.426V99.917Zm2.692,8.569c-.468,0-.816-.007-1.163,0-1.13.023-1.622.524-1.638,1.676-.009.755-.012,1.51,0,2.265.019,1.128.524,1.631,1.673,1.638,1.862.012,3.726,0,5.588,0q8.075,0,16.152,0c1.254,0,1.738-.492,1.75-1.738.007-.813.021-1.627-.009-2.44a1.32,1.32,0,0,0-1.209-1.373,11.985,11.985,0,0,0-1.622-.014v2.724h-2.775v-2.671h-2.808v2.661h-2.806v-2.68H157.3V111.2h-2.806v-2.659h-2.808v2.68H148.94v-2.741Zm8.385-14.02h-2.82V91.79H151.7v2.694h-2.762V91.737h-.965c-1.363.007-1.825.466-1.832,1.832,0,.611,0,1.221,0,1.829,0,1.482.438,1.92,1.92,1.92h16.5c1.717,0,3.435.009,5.152,0,.967-.009,1.543-.492,1.58-1.37.04-.958.044-1.918,0-2.876a1.3,1.3,0,0,0-1.268-1.314,14.616,14.616,0,0,0-1.543-.009v2.738h-2.775V91.8H162.9V94.47h-2.806V91.735h-2.358a4.047,4.047,0,0,0-.406.051v2.671Zm-5.577,5.647h-.983c-1.361.007-1.822.466-1.829,1.836,0,.611,0,1.221,0,1.829,0,1.48.438,1.916,1.923,1.916h16.851c1.6,0,3.2.012,4.8,0a1.387,1.387,0,0,0,1.578-1.373c.04-.958.044-1.918,0-2.873a1.3,1.3,0,0,0-1.272-1.31,15.233,15.233,0,0,0-1.54-.009v2.736H168.5v-2.682h-2.808v2.671h-2.806v-2.692H160.11v2.68H157.3v-2.671H154.5v2.692h-2.745V100.11Zm11.128-49.4-.177-.14c-.657.69-1.289,1.408-1.979,2.06a1.8,1.8,0,0,0-.613,1.436q.028,16.961.014,33.919V88.9h2.755Zm-5.593,5.269c-.848.888-1.5,1.627-2.216,2.3a1.692,1.692,0,0,0-.548,1.375q.021,14.168.009,28.337v.923h2.755V55.979Zm-16.734,24.56V79.514c0-6.506-.037-13.011.033-19.515a2.777,2.777,0,0,0-1.408-2.447,2.854,2.854,0,0,0-1.452,2.941c.061,6.36.028,12.719.028,19.079v.965h2.8ZM151.7,61.614c-.841.858-1.571,1.526-2.2,2.277a2.2,2.2,0,0,0-.531,1.265c-.037,4.847-.023,9.7-.021,14.544,0,.277.023.557.037.818.951.063,1.815.119,2.717.179Zm-16.814,18.92V61.621c-.823.851-1.55,1.526-2.179,2.284a2.217,2.217,0,0,0-.52,1.27c-.035,4.852-.023,9.706-.023,14.558v.8h2.722Zm8.522-18.925v18.9h2.738c0-5.269,0-10.47-.014-15.669a1.232,1.232,0,0,0-.326-.746c-.727-.792-1.491-1.55-2.4-2.482Zm-14.078,5.84-.182-.128c-.678.713-1.4,1.394-2.02,2.151a2.245,2.245,0,0,0-.534,1.265c-.044,2.992-.023,5.984-.023,8.977v.816h2.759ZM116.105,80.516h7.59V72.968l-7.59,7.548Z" transform="translate(-69.187 -23.04)"/>
    <path id="Path_183" data-name="Path 183" d="M139.586,31.57v8.264H114.53V31.57ZM117.3,37.032h19.466V34.341H117.3Z" transform="translate(-87.84 -24.214)"/>
    <path id="Path_184" data-name="Path 184" d="M139.576,103.42v2.687H114.52V103.42Z" transform="translate(-87.832 -79.32)"/>
    <path id="Path_185" data-name="Path 185" d="M114.39,82.092V79.41h25.087v2.682Z" transform="translate(-87.732 -60.905)"/>
    <path id="Path_186" data-name="Path 186" d="M114.4,154.022V151.34h25.068v2.682Z" transform="translate(-87.74 -116.073)"/>
    <path id="Path_187" data-name="Path 187" d="M176.3,127.39v2.682H162.4V127.39Z" transform="translate(-124.554 -97.704)"/>
    <path id="Path_188" data-name="Path 188" d="M117.182,130.054H114.5V127.36h2.682Z" transform="translate(-87.817 -97.681)"/>
    <path id="Path_189" data-name="Path 189" d="M141.2,127.35v2.668h-2.72V127.35h2.72Z" transform="translate(-106.208 -97.673)"/>
    <path id="Path_190" data-name="Path 190" d="M117.157,276.593h-2.694a5.4,5.4,0,0,1,5.49-5.46v2.661A2.978,2.978,0,0,0,117.157,276.593Z" transform="translate(-87.784 -207.941)"/>
    <path id="Path_191" data-name="Path 191" d="M217.649,280.692c0,.345.009.69.012,1.035v.876h-2.372c.175.317.359.608.5.918s.235.646.357.99h1.5v1.913h-1.5a4.914,4.914,0,0,1-5.339,3.833c1.394,1.394,2.8,2.794,4.185,4.185-.478.48-.923.925-1.377,1.38a.759.759,0,0,1-.072-.068q-2.706-2.706-5.409-5.413a.317.317,0,0,1-.093-.186c-.007-.573,0-1.144,0-1.717a.817.817,0,0,1,.014-.1h.175c1.1,0,2.2.007,3.3,0a2.845,2.845,0,0,0,2.556-1.783c.012-.033.023-.063.042-.119h-6.08v-1.911h6.082a2.682,2.682,0,0,0-.59-.986,2.765,2.765,0,0,0-2.058-.925c-1.081-.012-2.16,0-3.242,0h-.182a.6.6,0,0,1-.019-.093v-1.745a.388.388,0,0,1,.012-.072h9.594Z" transform="translate(-159.557 -215.279)"/>
  </g>
</svg>
