<svg id="Layer_2" data-name="Layer 2" xmlns="http://www.w3.org/2000/svg" width="60.221" height="60.221" viewBox="0 0 60.221 60.221">
  <g id="Color">
    <path id="_01.Facebook" data-name="01.Facebook" d="M30.11,0a30.11,30.11,0,1,0,30.11,30.11A30.11,30.11,0,0,0,30.11,0Zm8.566,19.6c0,.567-.238.792-.792.792-1.066,0-2.131,0-3.193.044s-1.64.527-1.64,1.636c-.024,1.189,0,2.353,0,3.566h4.56c.65,0,.872.222.872.876v4.778c0,.646-.206.848-.86.852H33.01V45.031c0,.689-.214.907-.9.907h-4.96c-.6,0-.832-.234-.832-.832V32.159H22.385c-.618,0-.84-.226-.84-.848V26.505c0-.618.234-.852.844-.852h3.934V22.187A8.673,8.673,0,0,1,27.4,17.725a6.541,6.541,0,0,1,3.538-2.94,8.68,8.68,0,0,1,3.031-.523h3.895c.559,0,.792.246.792.792.02,1.525.02,3.035.016,4.54Z" fill="#303084"/>
  </g>
</svg>
