<svg xmlns="http://www.w3.org/2000/svg" width="60.221" height="60.221" viewBox="0 0 60.221 60.221">
  <path id="linkedin" d="M30.11,0a30.11,30.11,0,1,0,30.11,30.11A30.114,30.114,0,0,0,30.11,0Zm-8.75,45.518H14.027V23.456h7.333ZM17.694,20.444h-.048a3.822,3.822,0,1,1,.1-7.623,3.824,3.824,0,1,1-.049,7.623ZM47.8,45.518H40.47v-11.8c0-2.966-1.062-4.989-3.715-4.989a4.014,4.014,0,0,0-3.762,2.682,5.022,5.022,0,0,0-.241,1.79V45.518H25.419s.1-19.992,0-22.062h7.333V26.58a7.28,7.28,0,0,1,6.609-3.642c4.825,0,8.442,3.153,8.442,9.93Zm0,0" fill="#303084"/>
</svg>
