<svg xmlns="http://www.w3.org/2000/svg" width="149.766" height="150.434" viewBox="0 0 149.766 150.434">
  <g id="svg3654" transform="translate(0 -0.003)">
    <path id="Path_314" data-name="Path 314" d="M102.092,141.418c-4.919,1.3-27.732,7.328-34.963-2.519-12.2-16.615,36.288-56.19,22.993-82.525C81.857,40,53.661,36.572,50.434,36.215,27.505,33.682,11.1,45.182,3.187,36.53-.088,32.947-.666,27.281.668,23.3c2.1-6.26,9.18-9.148,30.869-15.119C50.386,2.989,59.809.4,63.217.123c37.864-3.037,97.321,52.288,84.863,98.142-5.558,20.454-25.042,37.619-45.988,43.152Z" transform="translate(0)" fill="#f3da94"/>
    <path id="Path_315" data-name="Path 315" d="M467.94,81.2l34.078,28.543S483.073,89.369,467.94,81.2Z" transform="translate(-374.02 -64.9)" fill="#fff"/>
    <path id="Path_316" data-name="Path 316" d="M509.235,324.1l-.915,19.76S510.363,331.34,509.235,324.1Z" transform="translate(-406.296 -259.048)" fill="#fff"/>
    <path id="Path_317" data-name="Path 317" d="M624.457,529.12,611.02,545.428S622.067,536.2,624.457,529.12Z" transform="translate(-488.383 -422.919)" fill="#fff"/>
    <path id="Path_318" data-name="Path 318" d="M76.317,78.983a38.285,38.285,0,0,0-14.2-6.643V71.206a2.156,2.156,0,1,0-4.311,0v81.907A20.191,20.191,0,0,0,25.26,176.991a2.156,2.156,0,0,0,3.555-2.443,15.877,15.877,0,1,1,4.6,4.434,2.156,2.156,0,0,0-2.312,3.641,20.2,20.2,0,0,0,31.017-17.058v-68a28.292,28.292,0,0,1,20.071,9.265,29.287,29.287,0,0,1,5.847,9.512,2.157,2.157,0,0,0,2.055,1.505,2.064,2.064,0,0,0,.331-.026,2.156,2.156,0,0,0,1.826-2.132c0-20.45-8.661-31.248-15.926-36.7Zm9.192,25.089a32.852,32.852,0,0,0-23.395-10.83V76.787A34.391,34.391,0,0,1,73.886,82.55c7.2,5.475,11.657,13.373,13.313,23.553-.516-.67-1.078-1.351-1.69-2.031Z" transform="translate(-17.36 -55.188)"/>
    <path id="Path_319" data-name="Path 319" d="M321.287,177.953a38.284,38.284,0,0,0-14.2-6.643v-1.134a2.156,2.156,0,1,0-4.311,0v81.907a20.18,20.18,0,1,0,4.313,12.452V196.529a28.292,28.292,0,0,1,20.071,9.265A29.287,29.287,0,0,1,333,215.3a2.157,2.157,0,0,0,2.055,1.505,2.064,2.064,0,0,0,.331-.026,2.156,2.156,0,0,0,1.826-2.132c0-20.45-8.661-31.248-15.926-36.7Zm-34.4,102.468a15.884,15.884,0,1,1,15.884-15.884A15.9,15.9,0,0,1,286.885,280.421Zm43.594-77.379a32.852,32.852,0,0,0-23.395-10.83V175.757a34.353,34.353,0,0,1,11.772,5.762c7.2,5.475,11.657,13.373,13.313,23.553C331.653,204.4,331.091,203.722,330.479,203.042Z" transform="translate(-213.163 -134.294)"/>
  </g>
</svg>
