<svg id="twitter" xmlns="http://www.w3.org/2000/svg" width="60.221" height="60.221" viewBox="0 0 60.221 60.221">
  <g id="Group_73" data-name="Group 73">
    <path id="Path_500" data-name="Path 500" d="M30.11,0a30.11,30.11,0,1,0,30.11,30.11A30.145,30.145,0,0,0,30.11,0ZM43.543,23.219c.013.3.021.6.021.9,0,9.158-6.969,19.715-19.72,19.715A19.6,19.6,0,0,1,13.22,40.723a13.994,13.994,0,0,0,10.261-2.87,6.937,6.937,0,0,1-6.474-4.814,6.957,6.957,0,0,0,3.129-.116,6.932,6.932,0,0,1-5.559-6.8c0-.029,0-.059,0-.087a6.9,6.9,0,0,0,3.138.866,6.941,6.941,0,0,1-2.144-9.253A19.678,19.678,0,0,0,29.856,24.9a6.935,6.935,0,0,1,11.81-6.323,13.833,13.833,0,0,0,4.4-1.682,6.961,6.961,0,0,1-3.052,3.835A13.778,13.778,0,0,0,47,19.636a13.94,13.94,0,0,1-3.454,3.583Z" fill="#303084"/>
  </g>
</svg>
